<?xml version="1.0" encoding="utf-8"?>
<!-- Generator: Adobe Illustrator 24.3.0, SVG Export Plug-In . SVG Version: 6.00 Build 0)  -->
<svg version="1.1" id="icon" xmlns="http://www.w3.org/2000/svg" xmlns:xlink="http://www.w3.org/1999/xlink" x="0px" y="0px"
	 viewBox="0 0 32 32" style="enable-background:new 0 0 32 32;" xml:space="preserve">
<style type="text/css">
	.st0{fill:#FFECD1;}
	.st1{fill:none;}
</style>
<path class="st0" d="M26.7,4H5.3C4.6,4,4,4.6,4,5.3v21.3C4,27.4,4.6,28,5.3,28h11.5v-9.3h-3.1v-3.6h3.1v-2.7c0-3.1,1.9-4.8,4.7-4.8
	c0.9,0,1.9,0,2.8,0.1V11h-1.9c-1.5,0-1.8,0.7-1.8,1.8v2.3h3.6l-0.5,3.6h-3.1V28h6.1c0.7,0,1.3-0.6,1.3-1.3V5.3C28,4.6,27.4,4,26.7,4
	z"/>
<rect id="_Transparent_Rectangle_" class="st1" width="32" height="32"/>
</svg>
