<svg xmlns="http://www.w3.org/2000/svg" width="128" height="108.273" viewBox="0 0 128 108.273">
  <g id="Group_30" data-name="Group 30" transform="translate(0.011 -0.042)">
    <path id="Path_42" data-name="Path 42" d="M130.136,90.448c.814,0,.814-.041,1.627-.041a1.642,1.642,0,0,0,1.554-1.725c0-.1-.041-.1-.041-.187a1.605,1.605,0,0,0-1.513-1.725c-1.041,0-1.041.13-2.083.13s-1.041-.049-2.083-.049-1.041-.041-2.083-.041-1.042-.008-2.083-.008-1.041.081-2.083.081a1.506,1.506,0,0,0-1.505,1.619c0,.1-.073.1-.073.187a1.694,1.694,0,0,0,1.579,1.766c.814,0,.814-.138,1.627-.138a1.722,1.722,0,0,1,1.709,1.668c0,1.058.065,1.058.065,2.107s-.033,1.058-.033,2.107-.065,1.05-.065,2.107.057,1.05.057,2.107-.22,1.05-.22,2.107.244,1.05.244,2.107.041,1.05.041,2.107-.187,1.05-.187,2.107-.081,1.05-.081,2.107.277,1.05.277,2.107a1.571,1.571,0,0,0,1.5,1.7c.285,0,.285-.2.57-.2a1.606,1.606,0,0,0,1.733-1.5c0-1.058-.122-1.058-.122-2.107s.187-1.058.187-2.107-.024-1.05-.024-2.107-.024-1.05-.024-2.107-.146-1.05-.146-2.107-.057-1.05-.057-2.107.089-1.05.089-2.107-.033-1.05-.033-2.107-.016-1.05-.016-2.107-.073-1.05-.073-2.107A1.659,1.659,0,0,1,130.136,90.448Z" transform="translate(-22.319 -16.16)" fill="#b39457"/>
    <path id="Path_43" data-name="Path 43" d="M.047,67.461c0,.285-.065.578-.041.862.073.74.187,1.473.26,2.213s.073,1.481.171,2.221c.155,1.172.415,2.335.545,3.515.1.9-.008,1.831.081,2.734.057.6.138,1.212.22,1.814.277,1.627.578,3.255,1.009,4.866A20.153,20.153,0,0,0,3.5,89.576c.252.488.545.985.757,1.5a8.726,8.726,0,0,1,.643.692,8.363,8.363,0,0,0,3.458,2.392,8.237,8.237,0,0,0,3.1.928c.1,0,.2.1.3.122a14.6,14.6,0,0,0,3.1.716c1.5.041,2.994-.342,4.491-.325a11.217,11.217,0,0,0,3.849-.968,8.215,8.215,0,0,1,1.261-.334c-.163.187-.358.4-.578.643-.13.146-.277.309-.431.48-.163.2-.382.5-.586.765-.2.285-.374.6-.561.936a7.028,7.028,0,0,0-.464,1.147,6.588,6.588,0,0,0-.285,2.88,6.7,6.7,0,0,0,1.18,3.051,8.3,8.3,0,0,0,2.465,2.295,12.352,12.352,0,0,0,3.051,1.286,14.7,14.7,0,0,0,3.344.521,20.379,20.379,0,0,0,6.924-.976c4.622-1.473,8.609-4.369,12.4-7l1.424-.976.716-.48.765-.537c.936-.683,1.871-1.359,2.8-2.034,1.831-1.318,3.661-2.547,5.468-3.588A18.638,18.638,0,0,1,67.313,90.5a3.542,3.542,0,0,1,1.871.008,1.312,1.312,0,0,1,.5.309c.09.114.2.212.277.317.049.106.155.2.187.3a1.6,1.6,0,0,1,.106,1.155,4.339,4.339,0,0,1-.716,1.424,13.6,13.6,0,0,1-2.221,2.327c-.716.61-1.326,1.058-1.749,1.359s-.651.456-.651.456a3.661,3.661,0,0,0-1.595,1.888s-.114.578-.244,1.155-.285,1.164-.285,1.164c-.122.391.22.594.8.513l.423-.065a7.1,7.1,0,0,0,2.734-1.123l.732-.5c.472-.334,1.164-.822,2.018-1.513a19.123,19.123,0,0,0,2.929-2.913,9.347,9.347,0,0,0,1.456-2.514,6.218,6.218,0,0,0,.391-1.8A5.428,5.428,0,0,0,74,90.374a7.96,7.96,0,0,0-.431-.968,7.638,7.638,0,0,0-.578-.838l-.325-.366a2.7,2.7,0,0,0-.374-.374,4.955,4.955,0,0,0-.952-.683,5.872,5.872,0,0,0-1.066-.464,7.406,7.406,0,0,0-1.074-.22l-.529-.049h-.5a9.168,9.168,0,0,0-.968.073,14.2,14.2,0,0,0-3.442.976,29.466,29.466,0,0,0-3.1,1.505A64.184,64.184,0,0,0,54.831,92.7c-.928.675-1.871,1.351-2.807,2.034-.472.342-.9.643-1.351.952l-1.456.993c-1.928,1.326-3.784,2.661-5.647,3.816a29.052,29.052,0,0,1-5.6,2.807,16.939,16.939,0,0,1-5.5,1.017,10.574,10.574,0,0,1-4.622-.952,3.913,3.913,0,0,1-2.189-2.238A2.963,2.963,0,0,1,25.9,98.95c.09-.155.171-.3.252-.439.09-.122.179-.244.26-.35.212-.26.464-.529.635-.724.358-.4.553-.618.553-.618a3.245,3.245,0,0,0,.9-1.782,1.311,1.311,0,0,1,.293.5c.244.822.285,1.741,1.318,2.124A3.071,3.071,0,0,0,32.1,97.64c.757-.578,1.5-1.172,2.3-1.668.537-.334,1.245-.407,1.749-.765a21.077,21.077,0,0,0,2.4-2.026c.765-.724,1.456-1.513,2.189-2.27.675-.7,1.351-1.391,2.026-2.083.456-.472.9-.968,1.375-1.408.309-.285.7-.48,1.025-.757.618-.521,1.212-1.066,1.831-1.587a.6.6,0,0,1,.391-.122c.594.008,1.18.09,1.766.065,1.017-.049,2.034-.13,3.051-.236.6-.057,1.2-.155,1.79-.26.871-.155,1.749-.325,2.612-.513.334-.073.651-.252.985-.35,1.155-.325,2.319-.586,3.458-.96.578-.187,1.09-.6,1.66-.838,1.115-.464,2.27-.822,3.36-1.326a13.607,13.607,0,0,0,2.872-1.619,11.121,11.121,0,0,0,2.148-2.425,7.136,7.136,0,0,0,.732-2.1,8.591,8.591,0,0,0,.472-2.172,9.128,9.128,0,0,1,.659-4.2,1.1,1.1,0,0,0,.081-.423c-.081-1.074.545-1.53,1.44-1.318a6.851,6.851,0,0,0,1.774.187c1.115-.024,2.229-.163,3.344-.2a11.6,11.6,0,0,1,1.261.2c1.326.122,2.8-.822,3.971.529a.581.581,0,0,0,.122.065,22.2,22.2,0,0,1,2.1,1.318c.683.521,1.253,1.18,1.92,1.725a1.566,1.566,0,0,0,.838.212c.244.016.5-.073.74-.081.716-.033,1.383-.146,1.456-1.041.041-.448.008-.911.033-1.359a1.572,1.572,0,0,0-1.326-1.57.635.635,0,0,1-.277-.138c-.976-.643-1.937-1.326-2.937-1.928a16.89,16.89,0,0,1-3.076-1.758c-.9-.862-1.774-.146-2.636-.366a9.411,9.411,0,0,0-2.246-.008c-.757,0-1.505-.041-2.262-.016-.513.016-1.017.138-1.522.171a10.175,10.175,0,0,0-1.115.008c-.846.155-1.676.439-2.522.537a15.267,15.267,0,0,1-2.587.024c-1.334-.081-2.718.122-3.954-.61-.212-.122-.61-.081-.7-.244-.586-1.017-1.131-2.059-1.652-3.108a24.556,24.556,0,0,1-1.237-2.71c-.513-1.465-.887-2.986-1.383-4.459-.285-.862-.708-1.676-1.05-2.522q-.7-1.721-1.343-3.442c-.269-.716-.48-1.448-.765-2.156s-.635-1.391-.928-2.091a1.084,1.084,0,0,1-.081-.553,7.989,7.989,0,0,1,.325-1.831,30.146,30.146,0,0,1,1.326-2.791c.724-1.4,1.522-2.766,2.205-4.19.627-1.3,1.123-2.677,1.733-3.987.407-.862,1-1.635,1.375-2.5a18.539,18.539,0,0,0,.789-2.579c.057-.2-.065-.472.016-.651.578-1.326,0-2.6-.114-3.906a5.606,5.606,0,0,0-.4-1.432,10.25,10.25,0,0,0-.724-1.611c-.342-.586-.846-1.107-.439-1.863a.449.449,0,0,0,.008-.325c-.26-.838-.488-1.692-.822-2.5-.407-.985-.919-1.928-1.359-2.9-.171-.382-.163-1.033-.431-1.164a2.839,2.839,0,0,1-1.432-1.595c-.065-.171-.342-.252-.513-.382-.146-.114-.269-.252-.407-.366a11.132,11.132,0,0,0-1-.757c-.35-.22-.749-.374-1.115-.57-.293-.155-.561-.35-.854-.488-.887-.4-1.774-.8-2.677-1.155A19.245,19.245,0,0,0,49.062.366,17.8,17.8,0,0,0,46.043.1a16.723,16.723,0,0,0-2.783.008A13.454,13.454,0,0,0,40.486.74a6.733,6.733,0,0,0-1.432.716c-.765.472-1.5.993-2.254,1.489a7.351,7.351,0,0,0-1.513,1.017,30.323,30.323,0,0,0-1.863,2.449,5.905,5.905,0,0,0-.618.879c-.586,1.2-1.139,2.417-1.692,3.637-.122.269-.163.578-.277.854a20.37,20.37,0,0,0-1,2.392,17.674,17.674,0,0,0-.269,2.295,11.7,11.7,0,0,0-.309,1.538,7.946,7.946,0,0,1-.391,3.6c-.285.586-.317,1.5-1.53,1.221a4.708,4.708,0,0,0-2.36.4,23.964,23.964,0,0,0-2.669,1.237c-.936.464-1.863.944-2.8,1.408-.179.09-.391.114-.57.2a3.294,3.294,0,0,0-1.139.594c-.765.854-1.367,1.855-2.156,2.669-1.221,1.261-2.587,2.376-3.816,3.637-1.18,1.212-2.246,2.539-3.385,3.792-.521.57-1.139,1.041-1.668,1.6a7.827,7.827,0,0,0-.5.887c-.22.309-.553.537-.749.854-.456.724-.854,1.489-1.3,2.221a9.408,9.408,0,0,0-1.383,3.32,9.664,9.664,0,0,1-.643,1.733c-.374.862-.854,1.684-1.147,2.571a14.033,14.033,0,0,0-.342,2.132c-.016.122-.09.244-.106.366-.057.407-.106.822-.138,1.237-.049.586-.041,1.18-.114,1.766C.25,56.3.022,57.127,0,57.973c-.041,1.375.065,2.758.073,4.142C.087,63.889.063,65.679.047,67.461ZM65.71,72.595a9.382,9.382,0,0,1,.553-2.579,7.415,7.415,0,0,1,1.758-1.733.409.409,0,0,1,.366.1c.3.838,1.326,1.334,1.172,2.376a6.737,6.737,0,0,1-.317,1.1c-.024.09-.122.155-.146.244a8.134,8.134,0,0,1-3.1,4.329c-.106.09-.374.179-.407.138a2.046,2.046,0,0,1-.374-.675,1.4,1.4,0,0,1,.041-.513c-.024,0-.041-.008-.065-.008C65.368,74.434,65.539,73.514,65.71,72.595ZM56.654,57.461c.114-.806.171-1.611.3-2.417a2.134,2.134,0,0,1,.391-.659,3.493,3.493,0,0,1,.846.618c.374.513.635,1.1.976,1.644A20.7,20.7,0,0,1,60.518,58.8a16.568,16.568,0,0,1,.708,2.392l-.155.024c.049.488.106.976.146,1.465a.208.208,0,0,1-.122.179,6.033,6.033,0,0,1-1.652.366c-.985-.041-1.88-.366-2.083-1.538-.171-.976-1.237-1.627-.993-2.75C56.466,58.445,56.58,57.957,56.654,57.461Zm1.57-36.452c.513.138,1.066.114,1.562.293a2.643,2.643,0,0,1,1.139.765.991.991,0,0,1-.2.928c-.553.236-1.09.586-1.814.155a11.045,11.045,0,0,0-2.189-.667,7.59,7.59,0,0,1-1.025-.521c-.106-.057-.212-.163-.317-.163a1.926,1.926,0,0,0-1.383,1.53c0,1.09,1.538,2.514,2.913,2.832.732.171,1.587.358,1.554,1.416-.008.2-.073.529-.187.57a5.181,5.181,0,0,1-1.229.212c-.155.008-.309-.122-.472-.171-.9-.3-1.8-.594-2.693-.887a14.754,14.754,0,0,1-1.6-.521,3.831,3.831,0,0,1-1.408-.879,4.323,4.323,0,0,1-1.107-2.075,2.534,2.534,0,0,1,1.05-2.254c.5-.358.879-.871,1.343-1.269a1.252,1.252,0,0,1,.749-.317,15.872,15.872,0,0,1,2.563.22C56.4,20.39,57.3,20.756,58.224,21.008ZM32.5,32.2a7.132,7.132,0,0,1,1.058-1.847c.675-1.033,1.391-2.026,2.05-3.068.342-.537.586-1.131.9-1.676.5-.871,1.025-1.725,1.538-2.587.049-.081.146-.122.187-.2.366-.667.683-1.359,1.09-1.993.61-.944,1.3-1.823,1.912-2.766.472-.74.83-1.562,1.31-2.286a9.973,9.973,0,0,1,1.8-2.286,2.506,2.506,0,0,1,1.8-.138c1.245.244,2.457.635,3.686.96a.687.687,0,0,0,.277.049,4.252,4.252,0,0,1,2.734.6,2.049,2.049,0,0,0,1.147.277c.919-.187,1.115.683,1.66,1.017.073.041.106.3.09.309a3.491,3.491,0,0,1-.9.358,18.875,18.875,0,0,0-4.06.61,7.286,7.286,0,0,0-2.734,2.262,14.5,14.5,0,0,0-1.619,3.141,2.532,2.532,0,0,0-.2,1.2,8.258,8.258,0,0,0,.342,1.831,4.391,4.391,0,0,0,2.376,2.465c1.074.578,2.156,1.155,3.247,1.717a1.983,1.983,0,0,0,.5.106l.024-.073a9.592,9.592,0,0,1,1.277.586,6.528,6.528,0,0,1,1.782,1.408,2.7,2.7,0,0,1,.358,1.871,13.243,13.243,0,0,1-.9,2.262c-.325.838-.57,1.709-.919,2.539-.2.48-.586.887-.814,1.367A14.833,14.833,0,0,1,51.9,43.588c-1.2,1.4-2.677,2.221-4.589.683-.789-.635-1.684-1.139-2.531-1.7-.683-.464-1.351-.944-2.042-1.391-.342-.22-.74-.342-1.074-.57-1.107-.757-2.189-1.538-3.279-2.3-1.115-.781-2.238-1.562-3.369-2.327a12.805,12.805,0,0,1-2.539-1.766C32.162,33.816,32.317,32.831,32.5,32.2ZM53.781,54.19c0,.9-.008,1.79-.033,2.685,0,.073-.163.228-.2.212-.212-.09-.529-.171-.586-.342-.22-.627-.35-1.286-.513-1.928-.049-.2-.1-.391-.163-.586a1.867,1.867,0,0,1-.163-.431c-.024-1.009-.065-2.018-.008-3.019a3.635,3.635,0,0,1,.472-1.277.921.921,0,0,1,.594.179,8.282,8.282,0,0,1,.578,1.131C53.781,52,53.789,53.091,53.781,54.19ZM32.154,48.055c.578-.513,1.2-.985,1.774-1.505a4.577,4.577,0,0,0,.724-.862c.334-.5.627-1.033.928-1.562.073-.13.081-.293.146-.423.106-.22.187-.578.342-.618.285-.065.627-.578.96.081.179.35.708.521,1.066.789.374.277.724.578,1.1.854.163.122.35.2.521.3.212.13.415.277.618.415a2.79,2.79,0,0,0,.5.334c.871.366,1.766.683,2.628,1.066.3.138.521.472.814.627.806.415,1.652.765,2.457,1.188a1.17,1.17,0,0,1,.407.578c.3.716.578,1.44.854,2.164a.934.934,0,0,1,.106.456c-.057.5-.2,1-.228,1.513-.09,1.6-1.261,2.335-2.417,3.084a3.231,3.231,0,0,1-.285.163,8.8,8.8,0,0,1-1.92.911c-1.082.236-2.205.26-3.312.391-.749.09-1.481.244-2.229.3a3.944,3.944,0,0,1-2.9-.439c-.4-.293-1.147-.269-1.367-.618a11.943,11.943,0,0,1-.9-2.311l.26-.073c-.138-1.269-.285-2.531-.415-3.8-.041-.456,0-.911-.057-1.359-.057-.423-.2-.83-.277-1.253A.485.485,0,0,1,32.154,48.055Zm.545,28.3a22.167,22.167,0,0,0,1.806-1.8,5.6,5.6,0,0,1,2.449-1.6,10.01,10.01,0,0,1,1.587-.366,7.5,7.5,0,0,0,1.074-.415c.627-.285,1.253-.586,1.88-.887,1.172-.561,2.327-1.147,3.507-1.684a3.229,3.229,0,0,1,.9-.146,2.1,2.1,0,0,0,.325-.033c.732-.26,1.456-.578,2.205-.8,1.074-.309,2.181-.5,3.263-.814.862-.244,1.676-.667,2.547-.871a15.209,15.209,0,0,1,3.084-.423c.537-.008,1.074.4,1.635.545a5.035,5.035,0,0,1,2.823,1.961c.366.488.765.976.358,1.758a7.867,7.867,0,0,0-.325,2.01c-.114.627-.309,1.237-.456,1.863a9.409,9.409,0,0,1-.2,1.082c-.342.944-.716,1.871-1.107,2.8a2.869,2.869,0,0,1-.4.635,6.261,6.261,0,0,1-4.695,2.693,3.774,3.774,0,0,1-2.059-.5,2.313,2.313,0,0,0-.683-.114,11.59,11.59,0,0,0-2.091-.269,6.57,6.57,0,0,0-2.246.448,16.09,16.09,0,0,0-3.133,1.676,33.468,33.468,0,0,0-2.644,2.408c-.358.317-.814.537-1.139.879-.781.822-1.481,1.717-2.278,2.522a15.393,15.393,0,0,1-1.912,1.562c-.9.643-1.831,1.22-2.734,1.855a1.336,1.336,0,0,1-1.953-.985c-.228-.838-.325-1.709-.48-2.563.049-.008.09-.008.138-.016-.122-1.774-.252-3.548-.35-5.321A14.484,14.484,0,0,1,31.389,81a33.835,33.835,0,0,1,.6-3.6A2.79,2.79,0,0,1,32.7,76.354ZM20.86,30.829a13.419,13.419,0,0,1,.985-2.311.957.957,0,0,1,1.6-.1c.382.423.9.716,1.237,1.164A16.338,16.338,0,0,1,25.7,31.391c.334.6.708,1.18.993,1.8.423.911.757,1.871,1.2,2.783.3.635.708,1.221,1.058,1.831.6,1.05,1.2,2.107,1.8,3.165.212.366.391.757.627,1.107a1.34,1.34,0,0,1-.675,1.6c-.773.26-1.538.537-2.295.838a2.713,2.713,0,0,1-2.693-1.253,31.677,31.677,0,0,0-1.611-2.9c-.073-.122-.122-.252-.187-.382.049-.033.1-.065.155-.1a4.659,4.659,0,0,1-.5-.659c-.244-.464-.448-.952-.651-1.44-.415-.96-.822-1.928-1.229-2.889a17.144,17.144,0,0,1-.936-2.36A3.359,3.359,0,0,1,20.86,30.829ZM8.948,41.236c.3-.293.448-.74.74-1.041.919-.976,1.88-1.9,2.8-2.872.415-.431.74-.944,1.131-1.4a8.513,8.513,0,0,1,1.668-1.814c.382-.244,1.123.073,1.7.138.033.008.049.09.09.106,1.668.561,1.692,2.172,2.229,3.458.285.683.732,1.294,1.05,1.961.334.692.6,1.424.928,2.124a12.868,12.868,0,0,0,.643,1.123l-.22.122c.171.358.366.708.513,1.082A18.689,18.689,0,0,0,23.277,46.9a2.926,2.926,0,0,0,1.44,1.041A1.69,1.69,0,0,1,25.783,49.5a5.954,5.954,0,0,0,.114,1.562c.1.675.269,1.334.374,2.01.033.212-.049.439-.033.659.065,1.09.2,2.181.2,3.271a8.927,8.927,0,0,1-.293,2.636,23.17,23.17,0,0,1-1.505,3.6c-.317.627-.862.553-1.107-.073-.317-.8-.561-1.627-.9-2.417a20.48,20.48,0,0,0-1.017-1.969c-.651-1.123-1.269-2.278-2.018-3.336-.627-.887-1.432-1.644-2.14-2.474a10.158,10.158,0,0,0-.822-1.1c-.846-.757-1.758-1.44-2.612-2.189-.578-.5-1.058-1.115-1.635-1.611a11.532,11.532,0,0,0-2.4-1.806A3.222,3.222,0,0,1,8.948,41.236ZM3.724,60.96c.024-.773.236-1.538.269-2.3.041-1.1-.049-2.2,0-3.3.024-.618.212-1.237.293-1.855a19.749,19.749,0,0,1,.4-2.889A3.983,3.983,0,0,1,5.791,49.21a2.145,2.145,0,0,1,.9-.561c1.212-.358,1.6.732,2.286,1.334.472.415,1.009.749,1.5,1.147.8.659,1.579,1.334,2.368,2.01.057.049.09.13.146.179a15.192,15.192,0,0,1,1.6,1.359c.773.854,1.465,1.782,2.172,2.685a20.4,20.4,0,0,1,1.481,1.969c.407.659.683,1.4,1.041,2.091.212.407.472.789.716,1.18l-.22.122c.146.35.269.724.448,1.058.659,1.2.374,2.539.537,3.816a1.1,1.1,0,0,0,.008.285,5.522,5.522,0,0,1-.008,3.458c-.187.985-.317,1.985-.423,2.978-.163,1.456-.325,2.921-.382,4.386-.008.269.415.7.724.822a3.207,3.207,0,0,0,3.515-.659c.415-.431,2.433-.773,2.864-.407A2.087,2.087,0,0,1,27.6,79.5a15.809,15.809,0,0,1,.358,1.831,10.373,10.373,0,0,1,.163,1.937,39.659,39.659,0,0,1-.439,4.288,3.824,3.824,0,0,1-.887,1.8c-.838.96-2.091,1.139-3.271,1.44-.74.187-1.448.5-2.189.659-.862.179-1.758.2-2.628.374-.976.2-1.937.488-2.9.74-.033.008-.057.041-.09.033-1.538-.285-3.222.578-4.638-.6a7.3,7.3,0,0,1-.854-.806c-.57-.683-1.147-1.367-1.66-2.091a10.834,10.834,0,0,1-1.05-1.839C6.93,85.98,6.385,84.678,5.9,83.352a14.728,14.728,0,0,1-.7-2.579c-.2-1.107-.285-2.229-.431-3.352-.041-.293-.155-.57-.2-.862-.163-1.164-.342-2.319-.456-3.491-.041-.391.179-.8.146-1.188-.1-1.2-.285-2.384-.391-3.58-.041-.431.049-.862.041-1.3-.016-1.009-.065-2.018-.1-3.019S3.7,61.968,3.724,60.96Z" transform="translate(0 0)" fill="#b39457"/>
    <path id="Path_44" data-name="Path 44" d="M117.051,54.4h0a.272.272,0,0,1,.1.041.834.834,0,0,0,.4.106h.065c.74-.057.846-.594.919-.985.016-.1.041-.2.081-.358A12.7,12.7,0,0,1,119,51.579a11.837,11.837,0,0,0,.407-1.668l.049-.171a2.933,2.933,0,0,0,.106-2.042.881.881,0,0,0-.57-.431c-.5-.138-1.4-.146-1.782,1.286a15.51,15.51,0,0,0-.57,2,13.608,13.608,0,0,1-.545,1.937C115.83,53.515,116.148,54.15,117.051,54.4Z" transform="translate(-21.618 -8.789)" fill="#b39457"/>
    <path id="Path_45" data-name="Path 45" d="M112.776,69.109a.619.619,0,0,0,.171.024,1.2,1.2,0,0,0,.407-.09.374.374,0,0,1,.106-.033,1.761,1.761,0,0,0,1.489-1.391l.244-1.123c.146-.667.22-1.009.464-2.164a7.435,7.435,0,0,1,.472-1.57,9.58,9.58,0,0,0,.5-1.627c.277-1-.016-2.254-.968-2.514h0a1.374,1.374,0,0,0-1.416.594,3.826,3.826,0,0,0-.675,1.3,11.272,11.272,0,0,1-.578,1.489,12.351,12.351,0,0,0-.61,1.53,7.99,7.99,0,0,0-.382,1.676,7.415,7.415,0,0,1-.342,1.522A1.921,1.921,0,0,0,112.776,69.109Z" transform="translate(-20.793 -10.908)" fill="#b39457"/>
    <path id="Path_46" data-name="Path 46" d="M118.253,71.416a1.838,1.838,0,0,0,1.416.537,2.748,2.748,0,0,0,.382-.024.944.944,0,0,0,.618-.448,1.627,1.627,0,0,1,.155-.179A7.58,7.58,0,0,1,122.24,70.2a8.3,8.3,0,0,0,1.554-1.221,12.147,12.147,0,0,0,1.269-1.432,9.7,9.7,0,0,1,1.212-1.359c1.1-.944,1.383-1.741.838-2.376a.948.948,0,0,0-.667-.358,2.241,2.241,0,0,0-1.4.749l-.187.171c-.781.594-1.172.854-1.587,1.131-.382.252-.781.521-1.505,1.058a13.391,13.391,0,0,1-1.53,1,13.624,13.624,0,0,0-1.676,1.115A2.088,2.088,0,0,0,118.253,71.416Z" transform="translate(-21.965 -11.815)" fill="#b39457"/>
    <path id="Path_47" data-name="Path 47" d="M134.873,77.185a1.51,1.51,0,0,0,.749.171,4.251,4.251,0,0,0,.928-.13l.244-.049c1.424-.269,2.116-.35,2.848-.423.683-.073,1.4-.155,2.718-.391l.13-.016c.8-.073,2.14-.2,2.042-1.3a.555.555,0,0,0-.277-.423,5.546,5.546,0,0,0-2.384-.155v-.008c-1.391.057-2.116.065-2.815.065-.773.008-1.505.016-3.059.081-.61.057-1.741.163-1.627,1.456A1.286,1.286,0,0,0,134.873,77.185Z" transform="translate(-25.038 -13.858)" fill="#b39457"/>
    <path id="Path_48" data-name="Path 48" d="M94.887,42.1c.374,1.123.529,1.6.708,2.181.138.423.285.9.553,1.725.317.968.448,1.465.586,1.953.138.5.269,1,.594,1.993.309.944.431,1.44.545,1.92.122.5.252,1.025.594,2.059a1.974,1.974,0,0,0,1.831,1.123.985.985,0,0,0,.155-.008,1.269,1.269,0,0,0,.464-.179,1.865,1.865,0,0,0,1.017-.911,1.676,1.676,0,0,0,.081-1.367l-.008-.016c-.382-.919-.545-1.408-.708-1.88-.163-.5-.334-1.009-.749-1.985a9.546,9.546,0,0,0-1.025-1.888,9.066,9.066,0,0,1-.952-1.758,17.076,17.076,0,0,1-.7-1.92,16.046,16.046,0,0,0-.7-1.953,2.669,2.669,0,0,0-.675-1.058A1.241,1.241,0,0,0,95.2,39.89a.989.989,0,0,0-.594.529,2.082,2.082,0,0,0,.212,1.546Z" transform="translate(-17.615 -7.409)" fill="#b39457"/>
    <path id="Path_49" data-name="Path 49" d="M102.164,63.6c.4,1.041.618,1.546.846,2.059.22.5.439,1,.83,2.018a2.085,2.085,0,0,0,1.139,1.074,1.727,1.727,0,0,0,.643.138,1.286,1.286,0,0,0,.529-.114,1.669,1.669,0,0,0,.749-2.262,16.048,16.048,0,0,1-.61-2.018,15.9,15.9,0,0,0-.692-2.205,1.838,1.838,0,0,0-3.434,1.31Z" transform="translate(-19.018 -11.381)" fill="#b39457"/>
    <path id="Path_50" data-name="Path 50" d="M122.556,75.233a1.693,1.693,0,0,0-1.164.594,1.726,1.726,0,0,0-.374,1.3,1.4,1.4,0,0,0,.415,1.017,2.532,2.532,0,0,0,1.6.529,3.36,3.36,0,0,0,.635-.065l1.92-.269c.911-.13,1.481-.212,3.141-.423,1.082-.1,1.741-.74,1.66-1.644-.09-1.033-1.969-1.115-2.644-1.058C127.56,75.217,125.094,75.249,122.556,75.233Z" transform="translate(-22.55 -14.005)" fill="#b39457"/>
    <path id="Path_51" data-name="Path 51" d="M144.532,86.844c-.236,0-.236.033-.48.033a1.586,1.586,0,0,0-1.522,2.132c.366,1.066.236,1.115.6,2.181s.456,1.033.822,2.107.415,1.05.781,2.116.3,1.09.667,2.156.374,1.066.732,2.132a1.716,1.716,0,0,1,.106,1.1c-.342.976-.423.944-.765,1.928s-.317.985-.659,1.961-.325.985-.667,1.961-.366.968-.708,1.945-.391.96-.732,1.937-.228,1.017-.561,1.993a1.675,1.675,0,0,0,1.489,2.262c.244,0,.244-.122.48-.122a1.533,1.533,0,0,0,1.481-1.221c.3-1.115.5-1.058.8-2.172s.106-1.164.407-2.278.4-1.082.7-2.2c.293-1.082.366-1.09.683-2.116.325,1.009.212,1.082.529,2.164.325,1.115.5,1.066.83,2.181s.277,1.131.6,2.238.4,1.09.724,2.205a1.714,1.714,0,0,0,1.505,1.343c.252,0,.252-.2.5-.2a1.549,1.549,0,0,0,1.489-2.107c-.342-.976-.415-.952-.757-1.928s-.065-1.074-.407-2.05-.35-.976-.692-1.953-.6-.887-.944-1.863-.081-1.066-.423-2.042-.6-.887-.936-1.863a1.934,1.934,0,0,1,.041-1.155c.366-1.066.545-1.009.911-2.075s.146-1.139.513-2.213.48-1.025.846-2.091.285-1.09.659-2.164.407-1.058.773-2.124a1.653,1.653,0,0,0-1.5-2.229c-.252,0-.252-.024-.5-.024a1.872,1.872,0,0,0-1.725,1.253c-.277.968-.122,1.009-.4,1.977s-.252.976-.529,1.937-.244.976-.521,1.937-.26.976-.57,1.928c-.008.033-.146.041-.163,0-.285-.952-.252-.968-.5-1.928s-.09-1.009-.342-1.969-.5-.9-.765-1.855-.155-.985-.407-1.953A1.5,1.5,0,0,0,144.532,86.844Z" transform="translate(-26.471 -16.153)" fill="#b39457"/>
  </g>
</svg>
