<svg xmlns="http://www.w3.org/2000/svg" width="124.836" height="97.782" viewBox="0 0 124.836 97.782">
  <g id="Logo" transform="translate(0 0.02)" style="isolation: isolate">
    <g id="Group_46" data-name="Group 46" transform="translate(0 -0.02)">
      <g id="Group_45" data-name="Group 45">
        <path id="Path_120" data-name="Path 120" d="M0,111.513a2.7,2.7,0,0,0,.195-.609c.035-.379.02-.768.025-1.153,0-.15-.015-.3-.015-.449a.62.62,0,0,1,.459-.644c.544-.16,1.093-.314,1.647-.424a9.177,9.177,0,0,0,1.991-.674,3.842,3.842,0,0,1,1.188-.379,1.622,1.622,0,0,0,.344-.07,11.679,11.679,0,0,1,2.36-.664.119.119,0,0,0,.045-.015,8.812,8.812,0,0,1,2.006-.768.8.8,0,0,0,.389-.294.531.531,0,0,0-.145-.788,2.851,2.851,0,0,0-.5-.22c-.279-.115-.564-.2-.833-.344-.684-.349-1.362-.714-2.036-1.083-.454-.249-.883-.539-1.337-.788-.559-.3-1.128-.584-1.7-.863a6.666,6.666,0,0,1-1.237-.753,3.732,3.732,0,0,0-.8-.4c-.1-.05-.225-.06-.334-.1a.659.659,0,0,1-.5-.848,13.946,13.946,0,0,0,.3-2.081c.05-.434.15-.474.569-.549a7.9,7.9,0,0,1,2.54.165c.015,0,.035.01.05.01.664.195,1.377-.025,2.031.235a6.507,6.507,0,0,0,2.031.235c.9.055,1.806.085,2.7.175.948.09,1.886.249,2.834.354.629.07,1.267.12,1.9.13a17.749,17.749,0,0,1,3.483.4c.354.075.4.15.429.509a6.6,6.6,0,0,1,.06.7,8.877,8.877,0,0,1-.085,1.093,8,8,0,0,1-.2.828c-.085.319-.215.429-.534.4-.484-.04-.963-.1-1.442-.175a11.787,11.787,0,0,0-2.141-.2,6.554,6.554,0,0,1-1.941-.195,1.774,1.774,0,0,0-.394-.075.624.624,0,0,0-.664.489.606.606,0,0,0,.349.748.712.712,0,0,0,.235.09,5.528,5.528,0,0,1,1.931.923c.394.22.758.5,1.168.684a.936.936,0,0,1,.629,1.1c-.065.479-.09.963-.13,1.447a.78.78,0,0,1-.494.684,5.864,5.864,0,0,1-1.8.6,2.058,2.058,0,0,0-.689.284,2.077,2.077,0,0,1-1,.279,1.644,1.644,0,0,0-.444.06.565.565,0,0,0-.459.529.585.585,0,0,0,.454.584,2,2,0,0,0,.344.065l3.588.4a2.9,2.9,0,0,0,.549.02,4.668,4.668,0,0,1,1.577.235c.319.08.414.195.4.539-.02.783-.055,1.572-.11,2.35-.025.384-.2.564-.594.509a25.249,25.249,0,0,1-2.744-.245,2.6,2.6,0,0,0-.943-.01,1.923,1.923,0,0,1-.983-.085,2.223,2.223,0,0,0-1.183-.1,1.694,1.694,0,0,1-.594-.01,16.476,16.476,0,0,0-2.889-.329.991.991,0,0,1-.344-.045,7.371,7.371,0,0,0-2.38-.269c-.344-.01-.689-.095-1.038-.14-.329-.045-.659-.1-.988-.115-.519-.025-1.038-.01-1.552-.035a2.415,2.415,0,0,1-.584-.135,1.675,1.675,0,0,0-.933-.115.989.989,0,0,1-1.083-.319A2.073,2.073,0,0,1,0,111.513Z" transform="translate(0 -48.336)" fill="#ab8e53"/>
        <path id="Path_121" data-name="Path 121" d="M122.386-.01a3.125,3.125,0,0,0,.758.225A12.678,12.678,0,0,1,126.039.8,6.99,6.99,0,0,1,128.8,2.28a.582.582,0,0,1,.13.913,14.787,14.787,0,0,1-1.567,1.956.542.542,0,0,1-.679.145,3.015,3.015,0,0,1-.394-.215,8.469,8.469,0,0,0-2.081-.988,6.472,6.472,0,0,0-1.028-.21c-.23-.04-.469-.025-.7-.08a2.055,2.055,0,0,0-2.21,2.465,1.63,1.63,0,0,0,1.287,1.208,15.455,15.455,0,0,0,2.006.434,9.422,9.422,0,0,1,2.315.8c.155.065.294.17.449.225a3.148,3.148,0,0,1,1.707,1.682c.19.354.394.7.569,1.058a2.031,2.031,0,0,1,.19.564c.06.449.095.9.135,1.347a.344.344,0,0,1,0,.1c-.115.689-.23,1.377-.354,2.066a2.264,2.264,0,0,1-.524,1.068c-.225.269-.439.549-.674.808a3.639,3.639,0,0,1-2.051,1.173c-.324.06-.639.185-.963.259a5.011,5.011,0,0,1-.928.185c-.669.025-1.337.02-2.006,0a3.473,3.473,0,0,1-.833-.165c-.7-.21-1.4-.464-2.106-.654a2.522,2.522,0,0,1-1.183-.614,1.6,1.6,0,0,0-.4-.3,7.218,7.218,0,0,1-1.582-1.3c-.17-.165-.2-.274-.035-.479q.561-.7,1.168-1.377a6.877,6.877,0,0,1,.639-.564.567.567,0,0,1,.773-.065,1.209,1.209,0,0,1,.155.125,6.5,6.5,0,0,0,4.122,1.717c.215.015.434.02.649.055a2.634,2.634,0,0,0,1.776-.379,1.287,1.287,0,0,0,.714-1.183c0-.269.01-.534.02-.8a1.049,1.049,0,0,0-.479-.943,6.639,6.639,0,0,0-.893-.554,1.726,1.726,0,0,0-.724-.15,5.576,5.576,0,0,1-1.377-.21c-.743-.155-1.4-.544-2.126-.734a1.889,1.889,0,0,1-.763-.464,4.641,4.641,0,0,0-.738-.594,2.473,2.473,0,0,1-1.088-1.512,11.728,11.728,0,0,1-.374-1.816c-.065-.509-.045-1.033-.06-1.547a1.128,1.128,0,0,1,.04-.249,11.48,11.48,0,0,1,.983-2.24A7.857,7.857,0,0,1,119.652.743,15.3,15.3,0,0,1,121.373.21c.2-.065.4-.15.6-.23C122.117-.01,122.251-.01,122.386-.01Z" transform="translate(-57.713 0.02)" fill="#ab8e53"/>
        <path id="Path_122" data-name="Path 122" d="M241.39,182.521c-.235-.025-.464-.055-.7-.065a3.514,3.514,0,0,0-.793.005.728.728,0,0,1-.853-.329,6.992,6.992,0,0,1-.883-1.622,6.787,6.787,0,0,0-.729-1.312c-.195-.309-.464-.309-.694-.01a7.831,7.831,0,0,0-.988,1.567,16.3,16.3,0,0,1-.793,1.447.538.538,0,0,1-.5.284c-.469,0-.938.01-1.4.01-.15,0-.314-.015-.384-.18a.363.363,0,0,1,.11-.409,9.713,9.713,0,0,0,1.432-2.23c.175-.324.294-.674.474-.993.289-.524.594-1.048.918-1.552a.621.621,0,0,0,.01-.738c-.719-1.242-1.427-2.495-2.126-3.747a10.439,10.439,0,0,1-.454-.953c-.1-.25.01-.424.269-.369a5.864,5.864,0,0,0,1.447.055.582.582,0,0,1,.579.314c.185.334.379.669.569,1,.274.479.539.958.818,1.432.1.17.21.369.454.334.21-.03.264-.235.344-.4.269-.539.524-1.083.813-1.607.185-.334.429-.634.649-.953a.464.464,0,0,1,.424-.225c.469.025.938.04,1.4.09.3.035.344.135.19.4-.324.569-.669,1.123-.988,1.692-.544.963-1.073,1.931-1.617,2.889a.616.616,0,0,0-.015.659,15.98,15.98,0,0,0,1.317,2.305,3.147,3.147,0,0,1,.329.564,5.1,5.1,0,0,0,.674,1.053,5.961,5.961,0,0,1,.449.778c.08.14.165.274.25.414C241.39,182.257,241.39,182.392,241.39,182.521Z" transform="translate(-116.559 -85.803)" fill="#ab8e53"/>
        <path id="Path_123" data-name="Path 123" d="M225.13,118.78c-.06-.7-.14-1.4-.18-2.1-.035-.634-.015-1.272-.04-1.906-.02-.534-.05-1.068-.1-1.6-.03-.314-.17-.429-.479-.484a8.272,8.272,0,0,0-2.994.05c-.434.08-.584.24-.589.674a20.964,20.964,0,0,0,0,2.909,2.642,2.642,0,0,0,.045.4,8.079,8.079,0,0,1,.155,2.545c-.01.4-.15.539-.554.564a13.612,13.612,0,0,1-2.255.045c-.529-.055-.649-.165-.629-.689.04-1.138-.015-2.27-.085-3.408a16.836,16.836,0,0,1,.03-2.006c.035-.609-.125-.823-.748-.853-.115,0-.235,0-.349,0l-2.41-.015h-.1c-.6.015-.863.3-.808.883.045.464.115.928.145,1.4.02.314,0,.634-.01.948a4.755,4.755,0,0,0-.02.8,25.592,25.592,0,0,1,.18,3.6,2.065,2.065,0,0,1,0,.249c-.03.3-.125.4-.429.464-.05.01-.1.015-.15.02-.719.065-1.432.135-2.151.185-.519.035-.664-.09-.709-.609-.09-1-.16-2-.235-3a1.776,1.776,0,0,1,.005-.4,19.262,19.262,0,0,0-.08-3.6c-.025-.719-.02-1.437-.01-2.156,0-.434.045-.868.065-1.3,0-.115,0-.235,0-.349.025-.614.185-.753.773-.649a4.212,4.212,0,0,0,1.148-.01c.614-.065,1.232-.06,1.851-.085.434-.015.868-.035,1.3-.04s.838,0,1.252,0a10.8,10.8,0,0,1,2.44.055,3.758,3.758,0,0,0,1.637-.135,5.53,5.53,0,0,1,2.046,0,2.464,2.464,0,0,0,.993-.045,2.492,2.492,0,0,1,.539-.095c.669-.04,1.337-.09,2-.085.719,0,1.437.065,2.151.11.279.02.379.12.419.4a10.2,10.2,0,0,1,.1,1.1c.015.554,0,1.1,0,1.657a4.028,4.028,0,0,0,.135,1.242,2.147,2.147,0,0,1,.065.594c.01,1.337.01,2.675.015,4.017a3,3,0,0,0,.035.6,6.524,6.524,0,0,1-.06,1.9c-.02.245-.14.344-.384.389a.677.677,0,0,1-.1.01c-.753.025-1.5.065-2.255.07-.459,0-.629-.17-.644-.644-.015-.534,0-1.073,0-1.607A.154.154,0,0,0,225.13,118.78Z" transform="translate(-104.99 -54.575)" fill="#ab8e53"/>
        <path id="Path_124" data-name="Path 124" d="M183.414,53.128a2.2,2.2,0,0,1,.2-.444c.594-.843.853-1.851,1.387-2.724a.65.65,0,0,0-.055-.743,6.362,6.362,0,0,0-1.148-1.382c-.414-.389-.778-.828-1.188-1.223-.374-.359-.773-.689-1.168-1.023a.542.542,0,0,0-.614-.07,1.207,1.207,0,0,0-.18.09,18.831,18.831,0,0,1-2.63,1.232.7.7,0,0,1-.823-.115,6.348,6.348,0,0,1-1.168-1.088c-.165-.2-.409-.339-.594-.534a1.077,1.077,0,0,1-.284-.449.532.532,0,0,1,.4-.664c1.208-.369,2.255-1.1,3.423-1.547.279-.11.534-.274.808-.4.3-.135.614-.259.923-.374.454-.165.918-.309,1.372-.484a1.818,1.818,0,0,0,.479-.269,3.734,3.734,0,0,1,1.008-.549c.294-.115.584-.254.873-.379.4-.165.8-.324,1.208-.484.11-.045.225-.075.329-.12.659-.284,1.322-.559,1.971-.868.768-.364,1.512-.788,2.29-1.138.838-.379,1.692-.719,2.55-1.053a.5.5,0,0,1,.724.259,3.786,3.786,0,0,0,1.048,1.133c.344.259.374.434.2.828-.374.858-.748,1.717-1.138,2.565a2.492,2.492,0,0,1-.4.629,3.348,3.348,0,0,0-.569.938,21.193,21.193,0,0,1-1.522,3.164.69.69,0,0,0-.07.135,9.377,9.377,0,0,1-1.093,2.076,6.482,6.482,0,0,0-.7,1.492,3.968,3.968,0,0,1-.389.694c-.17.3-.334.614-.489.923-.12.24-.21.489-.319.734-.215.469-.429.943-.664,1.4a3.657,3.657,0,0,1-.419.679,2.072,2.072,0,0,0-.489.973,1.636,1.636,0,0,1-.095.339.474.474,0,0,1-.738.235,1.286,1.286,0,0,1-.264-.23c-.245-.254-.489-.5-.724-.768a2.709,2.709,0,0,0-.878-.734A.654.654,0,0,1,183.414,53.128Zm5.08-11.317a5.15,5.15,0,0,0-.574.289,5.729,5.729,0,0,1-1.262.594,11.214,11.214,0,0,0-1.467.634.561.561,0,0,0-.22.913c.1.155.235.284.319.444a4.623,4.623,0,0,0,1.277,1.252.523.523,0,0,0,.818-.155c.115-.18.18-.394.284-.584a3.872,3.872,0,0,1,.529-.893,4.6,4.6,0,0,0,.873-1.886C189.187,42.1,188.928,41.811,188.494,41.811Z" transform="translate(-87.744 -18.159)" fill="#ab8e53"/>
        <path id="Path_125" data-name="Path 125" d="M168.093,17.041c-.055.464-.09.933-.175,1.392-.09.5-.319.624-.788.439-.329-.125-.644-.279-.963-.424-.4-.175-.793-.354-1.2-.519-.434-.18-.474-.235-.489-.7a4.5,4.5,0,0,0-.474-1.931,2.592,2.592,0,0,0-2.6-1.452,3.112,3.112,0,0,0-2.465,1.352,4.247,4.247,0,0,0-.773,1.562,3.271,3.271,0,0,1-.319.734c-.185.354-.379.709-.584,1.053a4.81,4.81,0,0,0-.6,1.537,2.529,2.529,0,0,1-.2.564,4.264,4.264,0,0,0-.329,1.093,2.461,2.461,0,0,0,.359,1.871,3.214,3.214,0,0,0,1.362,1.292,2.868,2.868,0,0,0,1.727.09,3.862,3.862,0,0,0,1.642-.7.8.8,0,0,1,.933-.085c.374.18.778.294,1.163.459a9.374,9.374,0,0,1,1.078.529.507.507,0,0,1,.135.848,6.868,6.868,0,0,1-1.028,1.023c-.5.384-1.063.694-1.6,1.033-.125.08-.264.145-.384.235a2.559,2.559,0,0,1-2,.439,2.521,2.521,0,0,0-.8.01,1.721,1.721,0,0,1-.978-.115c-.309-.125-.634-.215-.948-.319a2.827,2.827,0,0,1-.424-.145,7.437,7.437,0,0,1-3.4-3.293,2.144,2.144,0,0,1-.185-.519,13.63,13.63,0,0,1-.334-2.585,1.641,1.641,0,0,1,.08-.539c.569-1.7,1.128-3.4,1.851-5.035a9.469,9.469,0,0,1,1.143-2.166,3.239,3.239,0,0,0,.359-.659,2.38,2.38,0,0,1,.694-.908,2.394,2.394,0,0,0,.394-.384,4.789,4.789,0,0,1,2.769-1.6c.439-.09.868-.249,1.307-.344a2.311,2.311,0,0,1,.694-.04c.449.045.888.13,1.337.2a.97.97,0,0,1,.245.055,7.338,7.338,0,0,1,2.495,1.342,7.471,7.471,0,0,1,1.237,1.3,6.138,6.138,0,0,1,.584,1.6A8.368,8.368,0,0,1,168.093,17.041Z" transform="translate(-76.385 -5.061)" fill="#ab8e53"/>
        <path id="Path_126" data-name="Path 126" d="M25.429,47.59a1.486,1.486,0,0,1,.4.259,7.306,7.306,0,0,0,1.432,1.163A5.69,5.69,0,0,1,28.653,50.3a1.985,1.985,0,0,0,.349.359,23.34,23.34,0,0,0,2.325,1.821,5.717,5.717,0,0,1,.549.439c.364.294.738.574,1.088.883.489.429.948.9,1.437,1.322.324.284.689.524,1.028.793a6.722,6.722,0,0,1,.743.664c.569.614.818.624,1.367,0,.823-.948,1.632-1.9,2.455-2.844.185-.215.394-.409.579-.624s.329-.419.489-.634c.289-.384.569-.783.873-1.158a.453.453,0,0,1,.738-.09c.649.474,1.287.958,1.911,1.462.4.329.424.584.09.983-.893,1.083-1.771,2.186-2.719,3.218a10.082,10.082,0,0,0-1.387,1.627c-.19.319-.559.524-.808.813-.589.684-1.153,1.387-1.726,2.086-.065.08-.115.165-.18.244-.344.444-.494.474-.943.11A28.318,28.318,0,0,1,34.6,59.94a.326.326,0,0,0-.08-.065,11.333,11.333,0,0,1-1.916-1.6c-.319-.269-.664-.5-.993-.758a3.113,3.113,0,0,1-.554-.5A5.161,5.161,0,0,0,29.2,55.449a1.2,1.2,0,0,1-.254-.155A18.313,18.313,0,0,1,26.806,53.4c-.14-.165-.319-.294-.474-.444-.369-.339-.729-.684-1.1-1.018-.2-.18-.414-.339-.629-.5-.374-.279-.763-.544-1.128-.838a.654.654,0,0,1-.08-1.078c.469-.544.948-1.083,1.417-1.627A.819.819,0,0,1,25.429,47.59Z" transform="translate(-11.597 -23.833)" fill="#ab8e53"/>
        <path id="Path_127" data-name="Path 127" d="M218.142,69.838a.586.586,0,0,1-.23.554,1.051,1.051,0,0,1-.22.12c-.933.4-1.861.838-2.809,1.208s-1.921.679-2.874,1.028a7.076,7.076,0,0,0-.8.4c-.249.13-.494.279-.753.389-.833.349-1.667.684-2.5,1.028-.14.055-.274.125-.414.175q-1.317.472-2.645.943a1.191,1.191,0,0,0-.185.075.66.66,0,0,0-.409.933c.065.19.15.374.22.559.1.264.2.529.284.8a4.118,4.118,0,0,0,.5,1.083,3.489,3.489,0,0,1,.334.778c.12.329.2.669.324,1,.15.409.3.813.474,1.213.125.289.269.574.4.858.045.09.1.175.145.264a.526.526,0,0,1-.259.793c-.339.185-.684.359-1.028.519s-.684.279-1.013.439a.68.68,0,0,1-1.038-.554,9.691,9.691,0,0,0-.554-1.662,1.054,1.054,0,0,0-.125-.274,7.943,7.943,0,0,1-.8-1.826c-.484-1.228-1.043-2.425-1.542-3.648-.314-.773-.589-1.567-.858-2.355-.165-.484-.075-.664.424-.828a7.043,7.043,0,0,0,1.432-.7,9.681,9.681,0,0,1,1.567-.654c.4-.16.808-.309,1.213-.469a2.932,2.932,0,0,1,.364-.165c1.218-.289,2.255-1.013,3.428-1.4.11-.035.215-.1.324-.135a7.486,7.486,0,0,0,2.136-.833.931.931,0,0,1,.334-.1,3.139,3.139,0,0,0,1.232-.524,4.354,4.354,0,0,1,1.652-.694,6.609,6.609,0,0,0,2.081-.828c.03-.015.055-.04.085-.055.539-.339.783-.274,1.063.3.3.619.6,1.232.9,1.851C218.062,69.593,218.107,69.753,218.142,69.838Z" transform="translate(-100.047 -33.602)" fill="#ab8e53"/>
        <path id="Path_128" data-name="Path 128" d="M54.36,20.464a.573.573,0,0,1,.24-.544c.14-.09.289-.17.434-.249.464-.264.933-.529,1.4-.788a3.787,3.787,0,0,1,.394-.22.535.535,0,0,1,.748.185,12.714,12.714,0,0,1,.684,1.108c.669,1.252,1.3,2.525,1.981,3.777.788,1.457,1.6,2.9,2.41,4.341.17.3.374.594.559.893.15.245.289.489.424.738.269.479.519.973.8,1.442a.54.54,0,0,0,.843.249c.948-.459,1.9-.913,2.824-1.412.484-.259.908-.624,1.377-.918a3.5,3.5,0,0,1,.843-.419,2.522,2.522,0,0,0,1-.554,1.626,1.626,0,0,1,.274-.215.522.522,0,0,1,.748.15,2.246,2.246,0,0,1,.135.215c.339.594.684,1.188,1.018,1.786.279.494.244.649-.215.948a6.7,6.7,0,0,1-1.457.778,5.5,5.5,0,0,0-.783.439c-.334.19-.669.374-1,.569s-.659.389-.988.589c-.115.07-.215.165-.329.23q-2.32,1.3-4.641,2.6a2.325,2.325,0,0,1-.225.11.46.46,0,0,1-.654-.175,5.21,5.21,0,0,1-.818-1.432,2.265,2.265,0,0,0-.444-.773,4.3,4.3,0,0,1-.589-.928c-.15-.314-.324-.624-.5-.923a13.216,13.216,0,0,1-1.083-2.031,4.526,4.526,0,0,0-.434-.729,8.083,8.083,0,0,1-.474-.763,23.144,23.144,0,0,0-1.766-3.144c-.529-.768-.948-1.607-1.412-2.42-.2-.349-.394-.7-.589-1.048-.21-.379-.424-.758-.624-1.143A1.506,1.506,0,0,1,54.36,20.464Z" transform="translate(-27.235 -9.302)" fill="#ab8e53"/>
        <path id="Path_129" data-name="Path 129" d="M12.437,70.06a2.982,2.982,0,0,1,.419.19,8.138,8.138,0,0,0,2.191.973,3.4,3.4,0,0,1,.714.354c.259.145.5.329.773.459.634.309,1.267.609,1.911.888.459.2.933.359,1.4.544.22.085.434.18.649.264.419.17.838.334,1.247.519a4.608,4.608,0,0,1,.783.434,2.159,2.159,0,0,0,.948.429,2.438,2.438,0,0,1,.923.374,9.968,9.968,0,0,0,.883.469c.409.195.818.379,1.232.559.274.12.564.21.843.319.434.175.873.344,1.292.544a.436.436,0,0,1,.274.614,9.936,9.936,0,0,1-.928,2.32c-.259.429-.379.489-.853.324a38.709,38.709,0,0,1-4.256-1.906c-.584-.289-1.193-.529-1.8-.758a4.311,4.311,0,0,1-1.068-.544,2.342,2.342,0,0,0-.714-.359,4.431,4.431,0,0,1-1.267-.584,2.62,2.62,0,0,0-.634-.294,8.247,8.247,0,0,1-2.315-1.058,1.943,1.943,0,0,0-.549-.244,8.926,8.926,0,0,1-2.225-1.028,4.71,4.71,0,0,0-.778-.339c-.155-.065-.324-.095-.469-.17a.447.447,0,0,1-.254-.624,12.487,12.487,0,0,1,.988-2.3A.658.658,0,0,1,12.437,70.06Z" transform="translate(-5.396 -35.091)" fill="#ab8e53"/>
        <path id="Path_130" data-name="Path 130" d="M153.973,182.448c-.235,0-.469,0-.7,0a.522.522,0,0,1-.5-.259,10.856,10.856,0,0,1-1.218-2.575,8.211,8.211,0,0,0-.818-1.6.42.42,0,0,0-.429-.21c-.364.035-.733.08-1.093.13a.3.3,0,0,0-.264.319,1,1,0,0,0,.015.3,2.949,2.949,0,0,1-.02,1.287,8.941,8.941,0,0,0-.055,1.1c-.01.369,0,.738-.03,1.1-.02.324-.115.4-.444.419a3.538,3.538,0,0,1-1.188-.135.4.4,0,0,1-.314-.344,3.059,3.059,0,0,1-.015-1.487,2.363,2.363,0,0,0,.04-.838,4.911,4.911,0,0,1,.01-1.3,3.052,3.052,0,0,0,.025-.8,20.946,20.946,0,0,1-.035-3.4c.01-.3,0-.6-.01-.9-.01-.484-.035-.968-.03-1.452,0-.344.06-.4.384-.479a2.835,2.835,0,0,1,1.487-.055,1.269,1.269,0,0,0,.544.055,12.057,12.057,0,0,1,2.4.055,3.348,3.348,0,0,1,2.41,1.178,1.242,1.242,0,0,1,.225.329,3.209,3.209,0,0,1-.354,3.618,8.008,8.008,0,0,1-.848.848c-.254.235-.284.284-.165.6a5.952,5.952,0,0,0,.833,1.647,3.214,3.214,0,0,1,.434.843,3.794,3.794,0,0,0,.669,1.223,1.223,1.223,0,0,1,.17.249c.165.314.055.529-.3.544-.264.015-.534,0-.8,0A.038.038,0,0,1,153.973,182.448Zm-5.03-7.919c0,.284,0,.569,0,.853.01.529.165.689.669.584a3.041,3.041,0,0,1,1.237.01,1.668,1.668,0,0,0,1.487-.419,1.422,1.422,0,0,0,.434-1.587,1.267,1.267,0,0,0-1.287-.853c-.684-.015-1.367,0-2.056.015-.354.01-.474.13-.489.494C148.934,173.926,148.944,174.225,148.944,174.529Z" transform="translate(-73.552 -85.76)" fill="#ab8e53"/>
        <path id="Path_131" data-name="Path 131" d="M33.342,176.848V179a1.813,1.813,0,0,1-.309,1.043c-.12.18-.23.369-.334.559a3.018,3.018,0,0,1-2.046,1.562,6.472,6.472,0,0,1-1.826.269,2.644,2.644,0,0,1-1.247-.329l-.609-.354a2.925,2.925,0,0,1-1.412-2.1c-.155-.888-.245-1.786-.324-2.685a5.737,5.737,0,0,1,.08-1.048c.065-.6.095-1.2.21-1.791a3.4,3.4,0,0,1,2.515-2.879,4.176,4.176,0,0,1,3.074.24,4.1,4.1,0,0,1,.778.539c.23.19.434.414.649.629a2.8,2.8,0,0,1,.853,1.976c.015.734,0,1.472,0,2.206A.2.2,0,0,1,33.342,176.848Zm-2-.394a4.512,4.512,0,0,0-.115-1.717,1.59,1.59,0,0,0-1.267-1.382,1.972,1.972,0,0,0-2.6,1.971c0,.7-.05,1.4-.075,2.1a3.078,3.078,0,0,0,.763,2.405,1.475,1.475,0,0,0,1.008.489,3,3,0,0,0,.6,0,1.635,1.635,0,0,0,1.607-1.657C31.3,177.906,31.321,177.143,31.346,176.454Z" transform="translate(-12.639 -85.699)" fill="#ab8e53"/>
        <path id="Path_132" data-name="Path 132" d="M97.526,178.6a26.373,26.373,0,0,0-.135-3.608,8.809,8.809,0,0,1,.02-1.2c0-.634,0-1.272,0-1.906,0-.439.085-.519.534-.544.319-.015.634-.02.953,0,.374.015.424.07.474.439a21.5,21.5,0,0,1,.2,3.4c-.02.833.045.873.883.863.269,0,.534-.01.8.01a7,7,0,0,0,1.647-.115c.439-.07.554-.23.444-.654a2.561,2.561,0,0,1-.1-.988c.04-.329.095-.664.12-.993.03-.414.035-.833.05-1.252,0-.115-.01-.235,0-.349.025-.235.115-.334.349-.344.384-.02.768-.02,1.153-.01.259.01.359.1.374.374.025.484.01.968.025,1.452.01.384.03.768.04,1.148.01.569.03,1.138.025,1.707-.01.918-.045,1.836-.06,2.759a14.17,14.17,0,0,0,.045,2.206,4.755,4.755,0,0,1-.085,1.242c-.03.235-.135.309-.379.314q-.576.015-1.153,0c-.284,0-.389-.11-.424-.389-.015-.1,0-.2-.01-.3-.01-.853-.02-1.707-.02-2.56,0-.3.035-.6.05-.9.02-.5-.15-.669-.654-.644-.9.045-1.8.095-2.7.145-.389.02-.459.08-.509.464a6.751,6.751,0,0,0-.035,1.347c.05.8.025,1.607.015,2.405,0,.289-.11.384-.4.394-.369.01-.739.01-1.1-.015-.329-.025-.389-.115-.434-.434a10.513,10.513,0,0,1-.055-2.206C97.5,179.429,97.506,179.015,97.526,178.6Z" transform="translate(-48.785 -85.825)" fill="#ab8e53"/>
        <path id="Path_133" data-name="Path 133" d="M74.664,172.862c.025.449.055.9.07,1.347a6.615,6.615,0,0,1-.035.7c-.01.135-.06.259-.075.394a.459.459,0,0,0,.264.539.429.429,0,0,0,.564-.2c.314-.434.6-.883.9-1.322.17-.245.349-.484.534-.724a10.5,10.5,0,0,0,.823-1.068,4.575,4.575,0,0,1,1.2-1.123.7.7,0,0,1,.334-.08c.449-.055.893-.1,1.342-.155.14-.015.269-.03.359.1a.316.316,0,0,1-.035.374c-.08.11-.17.21-.245.314-.225.309-.449.624-.679.933-.14.19-.284.369-.434.549-.284.349-.569.7-.858,1.043-.19.23-.379.469-.589.684-.369.384-.349.384-.175.868a10.431,10.431,0,0,0,1.043,1.821c.319.529.629,1.063.943,1.6.439.748.883,1.5,1.322,2.245.11.185.289.369.12.589-.145.19-.359.11-.559.095-.384-.03-.763-.06-1.148-.06a.626.626,0,0,1-.619-.334c-.215-.394-.459-.778-.659-1.178a2.75,2.75,0,0,0-.619-.9,1.275,1.275,0,0,1-.434-.823,3.29,3.29,0,0,0-.8-1.432c-.12-.165-.269-.155-.444-.03a.466.466,0,0,0-.075.065,5.884,5.884,0,0,1-1.178,1.158.514.514,0,0,0-.18.589,9.376,9.376,0,0,1,0,2.695c0,.264-.145.339-.4.3-.364-.05-.724-.1-1.088-.145-.454-.05-.514-.1-.544-.544a4.929,4.929,0,0,1,.065-1.3,2,2,0,0,0-.01-.843,5.205,5.205,0,0,1-.04-2.1,8.457,8.457,0,0,0,.03-2.1,11.691,11.691,0,0,1,.03-2.4,8.652,8.652,0,0,0,.025-.953c0-.15-.02-.3-.01-.449.02-.284.12-.4.409-.394a10.374,10.374,0,0,1,1.242.125c.274.04.334.125.344.4.015.369,0,.734,0,1.1C74.7,172.862,74.679,172.862,74.664,172.862Z" transform="translate(-36.342 -85.744)" fill="#ab8e53"/>
        <path id="Path_134" data-name="Path 134" d="M129.193,182.424c-.135,0-.269.015-.4.02-.564.02-.634-.01-.818-.524-.145-.409-.259-.828-.389-1.242-.025-.08-.03-.165-.055-.245-.1-.324-.21-.4-.544-.409-.115,0-.235.015-.349.015-.734,0-1.472,0-2.206.01-.065,0-.135-.01-.2-.01-.439,0-.474.01-.634.414-.21.529-.409,1.063-.624,1.587-.17.409-.284.479-.684.384a2.133,2.133,0,0,0-.988-.015c-.379.08-.484-.05-.414-.434a11.118,11.118,0,0,1,.783-2.166c.135-.339.284-.679.4-1.028.4-1.118.8-2.235,1.178-3.358.16-.474.269-.963.394-1.452a17.963,17.963,0,0,1,1.063-2.54.4.4,0,0,1,.439-.254c.3.03.6.065.9.095a.4.4,0,0,1,.324.279c.11.279.225.559.324.843.319.9.634,1.8.953,2.695.08.22.175.434.264.649a17.719,17.719,0,0,1,.674,1.672,33.353,33.353,0,0,0,1.267,3.273c.165.4.269.828.424,1.232a.373.373,0,0,1-.424.534,2.723,2.723,0,0,0-.349-.01h-.3C129.193,182.429,129.193,182.424,129.193,182.424Zm-3.208-4.236c.075,0,.13-.005.18,0a.5.5,0,0,0,.529-.719c-.279-.7-.5-1.417-.763-2.121-.11-.294-.245-.379-.469-.369-.245.01-.349.18-.4.384-.2.758-.394,1.517-.579,2.28-.065.274,0,.364.289.4C125.176,178.108,125.6,178.143,125.984,178.188Z" transform="translate(-60.557 -85.751)" fill="#ab8e53"/>
        <path id="Path_135" data-name="Path 135" d="M49.489,177.373c0-.5,0-1,0-1.5a5.28,5.28,0,0,1,.908-3.129,2.676,2.676,0,0,1,1.587-1.148,9.554,9.554,0,0,1,2.285-.254,3.035,3.035,0,0,1,2.69,1.856,5.37,5.37,0,0,0,.354.773,2.512,2.512,0,0,1,.175.414.281.281,0,0,1-.269.389c-.519.03-1.038.03-1.552.035a.3.3,0,0,1-.294-.225,1.933,1.933,0,0,0-.125-.274,1.6,1.6,0,0,0-1.492-.923,3.33,3.33,0,0,0-.893.08,2.022,2.022,0,0,0-1.277,1.851,4.388,4.388,0,0,1-.075,1.2,3.046,3.046,0,0,0-.02.8c.025.384.1.763.11,1.143a2.992,2.992,0,0,0,.863,1.816A.656.656,0,0,0,53,180.5c.3,0,.6,0,.9-.025a1.3,1.3,0,0,0,1.148-.773c.334-.748.4-.7,1.193-.714a6,6,0,0,1,.848.035c.4.05.409.13.379.524-.115,1.522-2.151,2.939-3.433,2.989a4.738,4.738,0,0,1-3.762-1.442,2.637,2.637,0,0,1-.763-2.006c.02-.569,0-1.133,0-1.7A.037.037,0,0,0,49.489,177.373Z" transform="translate(-24.794 -85.834)" fill="#ab8e53"/>
        <path id="Path_136" data-name="Path 136" d="M163.048,145.213c0-.1-.005-.2,0-.3a.309.309,0,0,1,.314-.324c.334,0,.664.035,1,.065a.371.371,0,0,1,.309.294,5.141,5.141,0,0,1,.259,1.168,9.346,9.346,0,0,0,.2,1.332c.065.3.2.414.419.424.235.01.384-.12.464-.439.17-.664.324-1.327.489-2,.025-.1.05-.195.075-.289a.45.45,0,0,1,.394-.394c.23-.03.464-.175.674-.13.249.05.215.384.339.574a2.663,2.663,0,0,1,.369,1.083c.06.379.16.753.254,1.123a.907.907,0,0,0,.135.319.357.357,0,0,0,.594-.02,1.36,1.36,0,0,0,.135-.424c.15-.734.289-1.472.439-2.21a.448.448,0,0,1,.439-.4c.264-.02.529-.085.793-.095.384-.015.549.195.489.574,0,.015,0,.035-.01.05a17.378,17.378,0,0,0-.624,2.57c-.284.818-.424,1.687-.684,2.515a8.937,8.937,0,0,0-.489,1.831.366.366,0,0,1-.319.334c-.968.22-.9.3-1.188-.574a7.8,7.8,0,0,1-.559-2.275.754.754,0,0,0-.075-.289.416.416,0,0,0-.444-.259.4.4,0,0,0-.379.284,3.359,3.359,0,0,0-.08.389c-.155.788-.3,1.577-.474,2.355-.11.5-.269.594-.783.509-.6-.1-.6-.1-.808-.694a5.225,5.225,0,0,1-.274-1.267,6.046,6.046,0,0,0-.235-.918c-.09-.339-.175-.679-.259-1.013-.1-.384-.2-.773-.314-1.158A8.437,8.437,0,0,1,163.048,145.213Z" transform="translate(-81.688 -72.421)" fill="#ab8e53"/>
        <path id="Path_137" data-name="Path 137" d="M2.624,151a13.887,13.887,0,0,1-.1-1.7,17.46,17.46,0,0,0-.03-2.45,2.167,2.167,0,0,1,.06-.344c.04-.364.07-.729.1-1.1.01-.1,0-.2,0-.3.025-.374.13-.474.509-.434.215.02.429.07.644.095a.429.429,0,0,1,.334.274c.23.484.459.963.674,1.452.235.534.454,1.078.684,1.617a.717.717,0,0,0,.135.21.289.289,0,0,0,.474,0,1.68,1.68,0,0,0,.19-.349c.459-1,.928-2,1.377-3.009a.56.56,0,0,1,.624-.379,4.769,4.769,0,0,1,.6.06.37.37,0,0,1,.319.439.17.17,0,0,1,0,.05,7.253,7.253,0,0,0-.06,2.39c0,.434-.045.868-.06,1.3a3.126,3.126,0,0,0,.015.649,4.208,4.208,0,0,1,0,1.347,5.4,5.4,0,0,0,0,.9,2.266,2.266,0,0,1,.03.444.365.365,0,0,1-.2.249A6.579,6.579,0,0,1,8,152.6a.388.388,0,0,1-.489-.424c0-.369.03-.734.05-1.1a2.684,2.684,0,0,0,.01-.4.355.355,0,0,0-.279-.319.35.35,0,0,0-.394.155,3.065,3.065,0,0,0-.269.484.653.653,0,0,1-.8.439,1.338,1.338,0,0,0-.2-.01.522.522,0,0,1-.5-.349,4.133,4.133,0,0,0-.23-.444c-.14-.235-.294-.314-.484-.264s-.289.195-.289.469.03.534.05.8c.01.15.035.3.04.449a.324.324,0,0,1-.289.354c-.294.055-.589.12-.888.155s-.444-.07-.459-.379c-.02-.4,0-.8,0-1.2A.138.138,0,0,1,2.624,151Z" transform="translate(-1.246 -72.427)" fill="#ab8e53"/>
        <path id="Path_138" data-name="Path 138" d="M5.616,172.605c-.02.259-.04.474-.055.694-.01.185-.03.369-.025.549.02,1,.05,2.006.07,3.009a1.228,1.228,0,0,1-.03.449,3.483,3.483,0,0,0-.085,1.487,8.152,8.152,0,0,1-.02,1.1c-.025.549.175.773.714.664a10.541,10.541,0,0,1,2.6-.015c.4.02.8-.025,1.2-.045.115,0,.235-.035.349-.035.264.005.374.085.4.344a11.659,11.659,0,0,1,.095,1.247c0,.429-.165.569-.6.514a15.752,15.752,0,0,0-3.1-.115,7.677,7.677,0,0,1-2-.03,3.222,3.222,0,0,0-.843.05c-.065,0-.13.03-.2.035-.544.065-.743-.13-.6-.654a3.209,3.209,0,0,0,.08-1.287c-.04-.3-.015-.6-.03-.9-.02-.384-.05-.768-.07-1.148a4.706,4.706,0,0,1-.03-.649c.09-1.322-.015-2.64-.015-3.962,0-.7,0-1.407.02-2.106,0-.369.13-.5.494-.459a4.9,4.9,0,0,0,1.148,0c.294-.035.389.06.439.354C5.561,172.012,5.586,172.331,5.616,172.605Z" transform="translate(-1.713 -85.832)" fill="#ab8e53"/>
        <path id="Path_139" data-name="Path 139" d="M172.593,171.3H175.4a3.388,3.388,0,0,1,.449.025.313.313,0,0,1,.294.294c.045.329.1.659.125.993.02.309-.05.389-.349.444a4.379,4.379,0,0,1-1.886.12.833.833,0,0,0-.249-.01c-.319.015-.424.1-.454.414-.03.284-.035.569-.055.848-.025.3-.065.6-.085.9a2.568,2.568,0,0,0,0,.649,11.318,11.318,0,0,1,.015,2.5,2.477,2.477,0,0,0,.02.793,5.841,5.841,0,0,1,.055,2.24c-.015.165-.05.329-.08.494a.383.383,0,0,1-.359.364c-.449.02-.9.025-1.352,0-.21-.01-.279-.155-.269-.4.03-.868.07-1.736.085-2.6,0-.4-.055-.8-.08-1.2-.01-.15-.02-.3-.02-.449-.005-.634-.01-1.272-.01-1.906a3.6,3.6,0,0,1,.035-.7,6.1,6.1,0,0,0-.055-1.6c-.02-.264-.115-.354-.379-.384-.364-.04-.733-.045-1.1-.06-.319-.01-.634-.01-.953-.015a.309.309,0,0,1-.339-.24,9.507,9.507,0,0,1-.14-.993c-.02-.269.065-.359.324-.414a6.061,6.061,0,0,1,1.592-.13c.8.045,1.6.01,2.405.01C172.593,171.291,172.593,171.3,172.593,171.3Z" transform="translate(-84.298 -85.8)" fill="#ab8e53"/>
        <path id="Path_140" data-name="Path 140" d="M215.033,180.346c0-.3.015-.6-.005-.9-.02-.434-.08-.863-.095-1.3a6.4,6.4,0,0,1,.11-2.091,1.374,1.374,0,0,0,0-.838,3.2,3.2,0,0,1-.1-1.337,2.093,2.093,0,0,0,.015-.249c-.015-.389-.1-.479-.509-.529a4.385,4.385,0,0,0-1.692-.005,1,1,0,0,1-.3.015.32.32,0,0,1-.344-.294c-.04-.364-.08-.734-.095-1.1-.01-.244.075-.349.314-.369.484-.035.963-.04,1.447-.05.434-.01.868,0,1.3,0,.634-.015,1.267-.04,1.9-.06.464-.015.933-.015,1.4-.065a4.73,4.73,0,0,1,1.477.22c.085.015.19.2.185.309a9.8,9.8,0,0,1-.1,1.148c-.03.225-.225.274-.419.274-.519,0-1.033-.015-1.552-.03-.1,0-.2-.03-.3-.04-.394-.03-.554.065-.579.444a12.058,12.058,0,0,0-.06,2.749,3.766,3.766,0,0,1,.01.948,22.937,22.937,0,0,0-.025,3.7c.02.349.045.7.04,1.053,0,.274-.085.364-.359.384a11.11,11.11,0,0,1-1.153.025c-.374-.015-.449-.115-.449-.5-.005-.5,0-1,0-1.5A.205.205,0,0,0,215.033,180.346Z" transform="translate(-106.224 -85.743)" fill="#ab8e53"/>
        <path id="Path_141" data-name="Path 141" d="M185.69,148.763c.06-.724.125-1.472.185-2.22a1.181,1.181,0,0,1,.519-.928c.329-.23.654-.464.988-.689a.869.869,0,0,1,.314-.15c1.382-.21,2.365-.095,3.193,1.173a3.078,3.078,0,0,1,.4,2.066c-.035.4-.02.8-.04,1.2-.03.549-.065,1.1-.115,1.647a1.049,1.049,0,0,1-.414.724,5.408,5.408,0,0,1-1.662,1.013,2.1,2.1,0,0,1-1.821-.245,4.374,4.374,0,0,1-1.327-1.477,1.3,1.3,0,0,1-.14-.579C185.73,149.8,185.715,149.3,185.69,148.763Zm1.731-.18h-.03c0,.434-.015.868,0,1.3a1.01,1.01,0,0,0,1.108,1.063,1.369,1.369,0,0,1,.249.015.536.536,0,0,0,.449-.165,1.339,1.339,0,0,0,.444-.978c.055-.783.09-1.567.095-2.355a1.017,1.017,0,0,0-.2-.594,1.243,1.243,0,0,0-1.567-.379.733.733,0,0,0-.549.743Z" transform="translate(-93.034 -72.483)" fill="#ab8e53"/>
        <path id="Path_142" data-name="Path 142" d="M26.338,146.162c-.369,0-.734,0-1.1,0-.479.01-.544.065-.644.519-.035.145-.075.289-.1.439-.11.514.085.8.6.8a13.076,13.076,0,0,0,1.652-.08c.768-.09.908.035.783.8-.015.085-.025.165-.035.249-.065.419-.18.509-.6.454-.18-.02-.359-.08-.539-.1a4.665,4.665,0,0,0-1.532.19.375.375,0,0,0-.225.235,4.225,4.225,0,0,0-.115.793.487.487,0,0,0,.544.569c.768-.01,1.537-.04,2.305-.06.085,0,.165-.02.249-.02a.292.292,0,0,1,.329.245c.06.279.125.554.16.838.035.249-.07.379-.324.409a6.189,6.189,0,0,1-1.9.06,2.15,2.15,0,0,0-.988.075,2.988,2.988,0,0,1-1.622-.175c-.09-.02-.19-.2-.2-.309-.075-.983-.135-1.966-.2-2.949a6.259,6.259,0,0,0,.09-2.136A15.371,15.371,0,0,1,23,145.154c.02-.3.08-.374.4-.409.414-.045.833-.055,1.247-.08.534-.03,1.068-.075,1.6-.075.484,0,.963.055,1.447.1a.317.317,0,0,1,.294.3,7.172,7.172,0,0,1,.065.8c0,.319-.14.454-.469.449-.419,0-.833-.04-1.252-.06C26.338,146.177,26.338,146.167,26.338,146.162Z" transform="translate(-11.438 -72.432)" fill="#ab8e53"/>
        <path id="Path_143" data-name="Path 143" d="M240.592,144.575a3.233,3.233,0,0,1,2.435.863.257.257,0,0,1,.05.429,10.408,10.408,0,0,1-.743.813.33.33,0,0,1-.269.02,1.706,1.706,0,0,1-.3-.175,2.351,2.351,0,0,0-1.252-.3,1.419,1.419,0,0,0-.574.15.608.608,0,0,0-.19.938,1.127,1.127,0,0,0,.743.469c.379.055.758.13,1.138.18a1.385,1.385,0,0,1,.883.434c.289.319.714.564.773,1.023a3.541,3.541,0,0,1-.125,1.736,1.833,1.833,0,0,1-1.063,1.073c-.354.145-.724.264-1.093.374a1.5,1.5,0,0,1-.888-.025,6.653,6.653,0,0,0-1.063-.274,2.45,2.45,0,0,1-1.307-.788.256.256,0,0,1-.02-.259,10.487,10.487,0,0,1,.724-.828c.14-.14.309-.06.469.005.384.16.773.319,1.158.474a1.588,1.588,0,0,0,.938.065.7.7,0,0,0,.634-.773c.01-.5-.15-.738-.6-.838-.309-.07-.629-.1-.943-.145a2.979,2.979,0,0,1-1.237-.374,1.3,1.3,0,0,1-.469-.429,3.347,3.347,0,0,1-.414-1.432,1.955,1.955,0,0,1,.629-1.577l.035-.035A2.013,2.013,0,0,1,240.592,144.575Z" transform="translate(-119.09 -72.412)" fill="#ab8e53"/>
        <path id="Path_144" data-name="Path 144" d="M52.578,152.617c-.354-.045-.654-.07-.948-.12s-.354-.18-.259-.469c.085-.254.2-.494.294-.743.254-.674.5-1.347.753-2.021q.135-.352.3-.689a3.679,3.679,0,0,0,.344-1.148,2.1,2.1,0,0,1,.235-.758,5.41,5.41,0,0,0,.554-1.392c.135-.519.269-.6.783-.509.664.11.669.11.883.763.284.838.559,1.677.848,2.515.065.19.165.364.235.554.125.344.259.689.349,1.043a2.869,2.869,0,0,0,.494,1.138,2.627,2.627,0,0,1,.369,1.432.251.251,0,0,1-.22.289,7.419,7.419,0,0,1-.743.11c-.3.025-.379-.025-.494-.314s-.215-.564-.3-.848a.63.63,0,0,0-.649-.519c-.549,0-1.1.03-1.652.05a.539.539,0,0,0-.539.5c-.05.245-.09.494-.155.734C52.972,152.547,52.847,152.627,52.578,152.617Zm1.577-3.663c-.02.269.035.359.284.454a1.465,1.465,0,0,0,.289.08.421.421,0,0,0,.5-.509,1.865,1.865,0,0,0-.274-.639.546.546,0,0,0-.374-.19.348.348,0,0,0-.344.309C54.2,148.62,54.184,148.79,54.154,148.955Z" transform="translate(-25.717 -72.505)" fill="#ab8e53"/>
        <path id="Path_145" data-name="Path 145" d="M41.432,147.28c.025.3.07.6.07.9,0,.449-.04.9-.045,1.347-.015.719-.015,1.437-.02,2.156,0,.165.025.334.01.5-.025.254-.135.379-.379.374a7.809,7.809,0,0,1-.9-.085.332.332,0,0,1-.289-.354,1.98,1.98,0,0,1,.01-.3,13.661,13.661,0,0,0,.075-2.555c0-.349,0-.7-.01-1.053-.02-.534-.05-1.068-.095-1.6-.025-.309-.13-.4-.449-.439-.3-.03-.6-.02-.9-.035-.354-.02-.444-.1-.464-.454a4.775,4.775,0,0,1,.01-.654c.03-.294.125-.369.429-.364.115,0,.235.03.349.04.165.01.334.03.5.025.569-.015,1.133-.04,1.7-.065.215-.01.434-.035.649-.045.414-.02.833-.05,1.252-.035s.554.185.524.614a.677.677,0,0,1-.01.1c-.14.758-.08.868-.938.763a2.782,2.782,0,0,0-.5-.01.534.534,0,0,0-.569.569c-.01.115,0,.235,0,.349S41.432,147.186,41.432,147.28Z" transform="translate(-19.057 -72.428)" fill="#ab8e53"/>
        <path id="Path_146" data-name="Path 146" d="M71.648,148.47c.025.669.045,1.332.085,2,.035.584.185.694.758.624a5.561,5.561,0,0,1,2.38.13c.279.09.334.135.354.4a4.8,4.8,0,0,1,0,.6c-.015.324-.15.454-.474.444-.235-.01-.464-.075-.7-.07-1,.015-2,.05-3,.075-.185,0-.369.025-.549.015-.3-.02-.424-.13-.429-.439a4.075,4.075,0,0,1,.04-1.048,10.44,10.44,0,0,0,.1-2.645c0-.753,0-1.5,0-2.255,0-.284-.02-.569-.03-.848-.02-.459.07-.559.539-.569,1-.025.888.1.9.873.02.9.055,1.8.085,2.7A.328.328,0,0,1,71.648,148.47Z" transform="translate(-35.102 -72.579)" fill="#ab8e53"/>
        <path id="Path_147" data-name="Path 147" d="M190.16,190.741a3.806,3.806,0,0,1,0,.549.663.663,0,0,1-.145.359c-.4.379-.813.743-1.227,1.1a.352.352,0,0,1-.414.095.385.385,0,0,1-.18-.389,1.374,1.374,0,0,1,.01-.249,5.1,5.1,0,0,0-.035-1.7c-.1-.6-.02-.694.579-.674.349.01.7.06,1.048.09a.342.342,0,0,1,.344.359C190.15,190.471,190.155,190.656,190.16,190.741Z" transform="translate(-94.255 -95.1)" fill="#ab8e53"/>
      </g>
    </g>
    <path id="Path_148" data-name="Path 148" d="M203.439,152.4a.307.307,0,0,1-.269-.3c0-.235,0-.7,0-.938s.01-.344.02-.464.02-.24.02-.474,0-.354,0-.469-.005-.235-.005-.464.005-.349.005-.469,0-.235,0-.469,0-.354,0-.469-.005-.235-.005-.469-.01-.359-.02-.474-.015-.23-.015-.464-.01-.354-.015-.474-.015-.23-.015-.464a4.546,4.546,0,0,1,.02-.459c.01-.115.02-.24.02-.474a.265.265,0,0,1,.269-.249,4.692,4.692,0,0,0,.484-.025,4.316,4.316,0,0,1,.464-.025,1.863,1.863,0,0,1,.454.045,2.148,2.148,0,0,0,.489.045,3.169,3.169,0,0,0,.484-.035,2.431,2.431,0,0,1,.459-.035,2.842,2.842,0,0,1,.873.16,2.2,2.2,0,0,1,.783.4,2.091,2.091,0,0,1,.6.808,2.764,2.764,0,0,1,.165,1,.092.092,0,0,0,.055.08,2.307,2.307,0,0,1-.16.639l-.05.14a2.23,2.23,0,0,1-.369.773,2.4,2.4,0,0,1-.659.574.11.11,0,0,1-.04,0c-.02,0-.04,0-.055,0a.233.233,0,0,0-.085.015.469.469,0,0,0-.279.539c.03.11.045.22.065.324a2.091,2.091,0,0,0,.349.953,1.03,1.03,0,0,0,.783.3.308.308,0,0,1,.235.3c0,.254,0,.384-.01.514s-.01.254-.01.5a.445.445,0,0,1-.135.015,5.013,5.013,0,0,1-.9-.14,2.381,2.381,0,0,1-.8-.449,2.5,2.5,0,0,1-.6-.689,1.71,1.71,0,0,1-.3-.848.667.667,0,0,0-.245-.509.454.454,0,0,0-.319-.135.4.4,0,0,0-.409.414c0,.264,0,.394,0,.524s-.01.264-.01.534a3.107,3.107,0,0,0,.04.539,3.094,3.094,0,0,1,.035.519.294.294,0,0,1-.3.254c-.279,0-.419.01-.559.02S203.709,152.4,203.439,152.4Zm1.786-6.522a.426.426,0,0,0-.439.419,4.116,4.116,0,0,0,.025.459,3.93,3.93,0,0,1,.025.439.439.439,0,0,0,.389.479,3.432,3.432,0,0,0,.5-.035,2.579,2.579,0,0,1,.474-.035.89.89,0,0,0,.738-.254l.05-.055-.02-.025a.893.893,0,0,0,.23-.584.787.787,0,0,0-.274-.659l-.025-.02h-.06a1.159,1.159,0,0,0-.584-.1c-.254,0-.379-.01-.514-.02S205.49,145.882,205.226,145.882Z" transform="translate(-101.776 -72.312)" fill="#ab8e53"/>
    <path id="Path_149" data-name="Path 149" d="M221.164,152.444a.274.274,0,0,1-.245-.284c0-.23.01-.349.015-.464s.015-.24.015-.474,0-.354-.01-.474-.01-.235-.01-.464a3.224,3.224,0,0,0-.035-.484,2.369,2.369,0,0,1-.035-.454,2.969,2.969,0,0,1,.03-.454,3.144,3.144,0,0,0,.035-.479c0-.24-.01-.354-.015-.474s-.015-.23-.015-.464a4.546,4.546,0,0,1,.02-.459c.01-.115.02-.24.02-.474s0-.354-.01-.474-.01-.235-.01-.464v-.469c0-.12,0-.235,0-.469a.244.244,0,0,1,.245-.254c.274,0,.409.01.544.015s.279.015.554.015a.241.241,0,0,1,.269.22c0,.235,0,.354.015.474s.015.23.015.464,0,.349-.01.464-.01.235-.01.474a.433.433,0,0,0,.125.309.4.4,0,0,0,.284.115.418.418,0,0,0,.334-.17c.15-.195.225-.289.3-.389l.294-.374c.15-.195.22-.294.289-.389s.14-.195.284-.389.22-.289.294-.384.145-.195.289-.384c.015-.02.055-.03.125-.03h.11c.329,0,.494,0,.659-.015s.324-.015.649-.015a.294.294,0,0,1,.259.17.248.248,0,0,1-.02.259c-.135.175-.2.259-.274.344s-.14.17-.279.344-.21.254-.279.334-.145.17-.284.344-.2.254-.279.339-.145.17-.284.344-.2.259-.259.349-.13.18-.269.359a.612.612,0,0,0-.075.11.539.539,0,0,1-.07.095.385.385,0,0,0-.1.319.4.4,0,0,0,.2.269,1.409,1.409,0,0,1,.185.125,2.071,2.071,0,0,0,.2.135l.02.01H225s0,.01,0,.015a.283.283,0,0,0,.075.12,1.439,1.439,0,0,1,.539.883l.02.14a1.969,1.969,0,0,0,.329.948,1.077,1.077,0,0,0,.773.354.224.224,0,0,1,.2.249c0,.259,0,.384,0,.514s0,.249,0,.494a.27.27,0,0,1-.085.01,4.463,4.463,0,0,1-.9-.175,2.407,2.407,0,0,1-.8-.429,2.654,2.654,0,0,1-.639-.654,1.675,1.675,0,0,1-.225-.863c0-.384-.309-.719-.848-.923a.433.433,0,0,0-.14-.025.5.5,0,0,0-.359.155.677.677,0,0,0-.15.22.585.585,0,0,1-.125.18.378.378,0,0,0-.115.269c0,.254,0,.379.005.5s0,.25,0,.5a4.932,4.932,0,0,1-.025.494,3.956,3.956,0,0,0-.025.514.214.214,0,0,1-.24.21,3.463,3.463,0,0,0-.564.04A3.546,3.546,0,0,1,221.164,152.444Z" transform="translate(-110.654 -72.362)" fill="#ab8e53"/>
    <g id="Group_47" data-name="Group 47" transform="translate(39.45 25.996)">
      <path id="Path_150" data-name="Path 150" d="M113.81,102.007a9.7,9.7,0,0,0,1.467-1.457,4.717,4.717,0,0,0,.729-1.257,3.044,3.044,0,0,0,.195-.9,2.685,2.685,0,0,0-.135-1.038,4.124,4.124,0,0,0-.215-.479.017.017,0,0,0,0-.01,4.045,4.045,0,0,0-.284-.414l-.16-.185a1.608,1.608,0,0,0-.185-.185,2.5,2.5,0,0,0-.474-.344,3.083,3.083,0,0,0-.529-.23s-.01,0-.015,0a3.417,3.417,0,0,0-.529-.1l-.254-.025h-.259a3.8,3.8,0,0,0-.484.04,7.173,7.173,0,0,0-1.721.489,14.364,14.364,0,0,0-1.552.753,31.391,31.391,0,0,0-2.919,1.871q-.7.509-1.407,1.018c-.235.17-.444.324-.679.479l-.729.5c-.963.664-1.9,1.332-2.829,1.911a14.746,14.746,0,0,1-2.8,1.407,8.538,8.538,0,0,1-2.754.509,5.312,5.312,0,0,1-2.315-.479,1.953,1.953,0,0,1-1.093-1.123,1.446,1.446,0,0,1,.12-1.088s0,0,0-.01c.04-.075.085-.145.12-.21,0,0,0-.01.01-.015.045-.06.085-.12.125-.17.1-.13.235-.264.319-.359.18-.2.274-.309.274-.309a1.652,1.652,0,0,0,.454-.893.681.681,0,0,1,.15.249c.125.414.145.868.664,1.063a1.537,1.537,0,0,0,.993-.01,13.229,13.229,0,0,1,1.153-.833c.269-.165.619-.2.878-.379a10.587,10.587,0,0,0,1.2-1.013c.384-.359.729-.758,1.093-1.138.339-.349.679-.694,1.018-1.043.23-.235.449-.484.689-.7.155-.145.349-.24.514-.379.309-.259.609-.534.918-.793a.3.3,0,0,1,.195-.06c.294,0,.594.045.883.03.624-.025,1.247-.09,1.871-.15h.01c.619-.1,1.237-.22,1.856-.354.17-.035.324-.125.494-.175.579-.16,1.163-.294,1.731-.479.289-.095.544-.3.828-.419.554-.23,1.138-.409,1.682-.664a6.871,6.871,0,0,0,1.437-.808,5.41,5.41,0,0,0,1.073-1.213A3.661,3.661,0,0,0,115,89.368a4.421,4.421,0,0,0,.235-1.088,4.6,4.6,0,0,1,.329-2.106.565.565,0,0,0,.04-.215c-.045-.619.374-.828.928-.589a.145.145,0,0,0,.045.01,22.29,22.29,0,0,0,2.31-.08,5.782,5.782,0,0,1,.634.1c.664.06,1.4-.409,1.986.264.015.015.045.02.065.035.354.22.724.409,1.053.659s.629.589.958.863a.759.759,0,0,0,.419.1,3.291,3.291,0,0,0,.374-.04c.359-.015.694-.075.734-.524.02-.225,0-.454.015-.684a.786.786,0,0,0-.664-.788.336.336,0,0,1-.14-.07c-.489-.324-.968-.664-1.472-.968a8.114,8.114,0,0,1-1.537-.883c-.449-.429-.888-.075-1.317-.185a4.688,4.688,0,0,0-1.123,0c-.379,0-.753-.02-1.133,0-.254.01-.509.07-.763.085a5.207,5.207,0,0,0-.559,0c-.424.075-.838.22-1.262.269a7.043,7.043,0,0,1-1.3.01,4.085,4.085,0,0,1-1.981-.309c-.1-.065-.3-.04-.349-.12-.294-.509-.564-1.028-.823-1.557a12.311,12.311,0,0,1-.619-1.357c-.259-.734-.444-1.492-.689-2.23-.145-.429-.354-.838-.524-1.262-.23-.574-.454-1.148-.674-1.726-.135-.359-.24-.724-.379-1.078-.155-.389-.354-.763-.514-1.158a.194.194,0,0,1-.01-.075,5.244,5.244,0,0,1,.175-1.013,14.876,14.876,0,0,1,.664-1.4c.364-.7.763-1.387,1.1-2.1.314-.654.559-1.337.868-2,.2-.429.5-.818.689-1.252a9.438,9.438,0,0,0,.394-1.292c.03-.1-.03-.235.01-.329a3.7,3.7,0,0,0-.06-1.951,2.58,2.58,0,0,0-.2-.714,5.341,5.341,0,0,0-.364-.808c-.17-.294-.424-.554-.22-.933a.233.233,0,0,0,0-.165c-.13-.419-.245-.848-.409-1.252-.2-.494-.464-.963-.684-1.452-.085-.195-.08-.514-.215-.584a1.385,1.385,0,0,1-.714-.8c-.03-.085-.175-.125-.259-.195s-.135-.125-.2-.185a5.318,5.318,0,0,0-.5-.379c-.175-.11-.374-.19-.559-.284-.145-.075-.279-.175-.429-.244-.444-.2-.888-.4-1.337-.579a9.369,9.369,0,0,0-1.432-.5,8.965,8.965,0,0,0-1.512-.135,8.643,8.643,0,0,0-1.392,0,8.325,8.325,0,0,0-1.382.334c-.539.17-1.018.614-1.452.758a.129.129,0,0,0-.07.055c-.254.369-.783.479-1.078.8-.344.379-.624.813-.933,1.228a3.321,3.321,0,0,0-.309.439c-.294.6-.574,1.213-.848,1.821-.06.135-.085.289-.14.429a10.837,10.837,0,0,0-.5,1.2,9.734,9.734,0,0,0-.135,1.148,6.164,6.164,0,0,0-.155.768,4.014,4.014,0,0,1-.195,1.806c-.145.294-.16.748-.763.614a2.384,2.384,0,0,0-1.183.2,12.014,12.014,0,0,0-1.337.619c-.469.23-.933.474-1.4.7-.09.045-.195.055-.284.1a1.734,1.734,0,0,0-.574.294c-.379.429-.684.928-1.078,1.337-.609.634-1.3,1.193-1.911,1.821-.589.609-1.123,1.272-1.7,1.9-.259.284-.569.524-.833.8a3.817,3.817,0,0,0-.254.444c-.11.155-.274.269-.374.429-.23.364-.429.743-.654,1.108a4.88,4.88,0,0,0-.694,1.662,4.294,4.294,0,0,1-.309.868c-.185.434-.424.843-.574,1.287a6.211,6.211,0,0,0-.17,1.063c-.01.06-.045.12-.055.185-.025.2-.055.409-.07.619-.025.294-.02.589-.055.883-.05.424-.165.838-.175,1.262-.02.689.03,1.382.035,2.076,0,.893-.01,1.786-.015,2.685a4.181,4.181,0,0,0-.02.429c.035.369.095.739.13,1.108s.04.743.09,1.113c.08.589.21,1.168.269,1.761.05.454,0,.918.04,1.367.03.3.07.6.11.908.135.818.289,1.627.5,2.435a10.124,10.124,0,0,0,.609,1.946c.12.24.264.479.369.729a.078.078,0,0,0,.03.04c.1.1.21.21.3.324a4.218,4.218,0,0,0,1.731,1.2,4.08,4.08,0,0,0,1.552.464c.05,0,.1.05.15.06a7.585,7.585,0,0,0,1.552.359c.748.02,1.5-.17,2.25-.16a5.509,5.509,0,0,0,1.926-.489c.065-.025.135-.045.2-.065a.136.136,0,0,1,.14.22h0c-.065.075-.14.155-.215.24s-.19.249-.289.384-.185.294-.274.464c0,0,0,0,0,.01a3.975,3.975,0,0,0-.23.569,3.289,3.289,0,0,0-.145,1.442,3.355,3.355,0,0,0,.589,1.527,4.1,4.1,0,0,0,1.232,1.148,6.1,6.1,0,0,0,1.527.644,7.126,7.126,0,0,0,1.672.259,10.165,10.165,0,0,0,3.468-.489,23.979,23.979,0,0,0,6.207-3.5l.714-.489.359-.24.384-.269c.469-.339.938-.684,1.4-1.018.918-.659,1.831-1.277,2.734-1.8a9.413,9.413,0,0,1,2.61-1.108,1.739,1.739,0,0,1,.933,0,.619.619,0,0,1,.249.155c.045.055.1.1.14.16a1.242,1.242,0,0,1,.095.15.815.815,0,0,1,.055.579,2.284,2.284,0,0,1-.359.714,6.975,6.975,0,0,1-1.113,1.168c-.359.3-.664.529-.873.679s-.324.23-.324.23a1.834,1.834,0,0,0-.8.943s-.055.289-.12.579-.145.584-.145.584c-.06.195.11.3.4.254l.21-.03a3.6,3.6,0,0,0,1.372-.559s.13-.085.364-.249C113.036,102.6,113.385,102.356,113.81,102.007ZM111.928,88.47a4.69,4.69,0,0,1,.279-1.292,3.656,3.656,0,0,1,.883-.868c.025-.025.17.015.18.05.155.419.664.669.589,1.193a3.6,3.6,0,0,1-.155.549c-.015.045-.065.075-.075.12a4.088,4.088,0,0,1-1.552,2.171c-.055.045-.19.09-.2.07a1.138,1.138,0,0,1-.19-.339.675.675,0,0,1,.02-.259c-.01,0-.02,0-.03,0C111.759,89.393,111.844,88.934,111.928,88.47ZM107.393,80.9c.055-.4.085-.808.15-1.208a.6.6,0,0,1,.12-.23.139.139,0,0,1,.18-.035,1.052,1.052,0,0,1,.319.24c.185.254.319.549.489.823a9.708,9.708,0,0,1,.674,1.078,8.719,8.719,0,0,1,.354,1.2.387.387,0,0,1-.08.01c.025.244.055.489.075.734a.119.119,0,0,1-.06.09,2.9,2.9,0,0,1-.828.18c-.494-.02-.938-.185-1.043-.768-.085-.489-.619-.813-.5-1.377C107.3,81.384,107.358,81.14,107.393,80.9Zm.788-18.253c.254.07.534.06.783.145a1.257,1.257,0,0,1,.569.384.486.486,0,0,1-.1.464c-.274.12-.549.294-.908.075a5.561,5.561,0,0,0-1.093-.334,3.819,3.819,0,0,1-.514-.259c-.055-.03-.11-.08-.16-.08a.958.958,0,0,0-.694.763c0,.544.768,1.262,1.457,1.417.369.085.793.18.778.709,0,.1-.035.264-.095.284a2.55,2.55,0,0,1-.614.1c-.075,0-.155-.06-.24-.085-.449-.15-.9-.3-1.347-.444a7.184,7.184,0,0,1-.8-.259,1.875,1.875,0,0,1-.7-.439,2.16,2.16,0,0,1-.554-1.038,1.262,1.262,0,0,1,.529-1.128c.249-.18.439-.434.674-.634a.614.614,0,0,1,.374-.16,7.851,7.851,0,0,1,1.282.11C107.268,62.338,107.717,62.517,108.181,62.642ZM95.3,68.246a3.677,3.677,0,0,1,.529-.928c.334-.514.7-1.018,1.028-1.532.17-.269.294-.564.454-.843.249-.434.514-.863.768-1.292.025-.04.075-.065.095-.1.185-.334.344-.679.549-1,.3-.469.654-.913.958-1.382.24-.369.414-.778.659-1.148a4.962,4.962,0,0,1,.9-1.143,1.27,1.27,0,0,1,.9-.07c.624.12,1.232.314,1.846.479a.345.345,0,0,0,.14.025,2.125,2.125,0,0,1,1.367.3.975.975,0,0,0,.574.135c.459-.095.559.339.828.509.035.02.055.15.045.155a1.726,1.726,0,0,1-.449.18,9.276,9.276,0,0,0-2.031.3,3.591,3.591,0,0,0-1.367,1.133,9.711,9.711,0,0,0-.913,1.786.133.133,0,0,0-.015.06,4.086,4.086,0,0,0,.185,1.247,2.2,2.2,0,0,0,1.188,1.232c.539.289,1.083.579,1.627.863a.858.858,0,0,0,.254.055.093.093,0,0,0,.01-.035,4.121,4.121,0,0,1,.639.294,3.226,3.226,0,0,1,.893.7,1.382,1.382,0,0,1,.18.938,6.392,6.392,0,0,1-.454,1.133c-.16.419-.284.858-.459,1.272-.1.24-.294.444-.4.684a7.648,7.648,0,0,1-.8,1.692,1.475,1.475,0,0,1-2.3.344c-.394-.319-.843-.569-1.262-.853-.344-.23-.674-.474-1.023-.7-.17-.11-.369-.175-.539-.284-.554-.379-1.093-.768-1.642-1.153s-1.118-.783-1.687-1.163a6.358,6.358,0,0,1-1.272-.888C95.133,69.054,95.207,68.565,95.3,68.246Zm10.653,11.008q0,.674-.015,1.347c0,.04-.08.115-.1.1-.1-.045-.264-.085-.294-.17-.11-.314-.175-.644-.254-.968-.025-.1-.05-.195-.08-.294a.81.81,0,0,1-.08-.215c-.01-.5-.035-1.008,0-1.512a1.847,1.847,0,0,1,.24-.639.441.441,0,0,1,.3.09,3.984,3.984,0,0,1,.279.539.133.133,0,0,1,.015.06C105.956,78.181,105.961,78.719,105.956,79.253ZM95.128,76.185c.344-.3.714-.584,1.048-.9,0,0,.015-.015.015-.02a9.434,9.434,0,0,0,.654-1.048c.035-.065.045-.145.075-.215.05-.11.095-.289.17-.309.145-.035.314-.289.479.04.09.175.354.259.534.394s.364.289.549.429a2.69,2.69,0,0,0,.259.15c.1.065.21.135.309.2a1.952,1.952,0,0,0,.244.17c.439.18.883.339,1.317.534.155.07.259.235.409.314.4.21.828.384,1.228.6a.569.569,0,0,1,.2.289c.15.359.289.724.424,1.083a.48.48,0,0,1,.055.225c-.03.254-.1.5-.115.758-.045.828-.674,1.193-1.272,1.587,0,0-.01,0-.015.01a5.191,5.191,0,0,1-1.028.484c-.544.115-1.108.13-1.662.195-.374.045-.743.12-1.118.15a1.986,1.986,0,0,1-1.452-.22c-.2-.145-.574-.135-.684-.309a5.99,5.99,0,0,1-.449-1.158c.045-.015.085-.025.13-.04-.07-.634-.145-1.267-.2-1.9-.02-.225,0-.459-.03-.684s-.1-.414-.14-.624A.33.33,0,0,1,95.128,76.185ZM95.4,90.356a10.96,10.96,0,0,0,.9-.9,2.8,2.8,0,0,1,1.228-.8,5.1,5.1,0,0,1,.793-.185,3.542,3.542,0,0,0,.539-.21c.314-.14.629-.294.938-.444.584-.279,1.168-.574,1.756-.843a1.878,1.878,0,0,1,.449-.075,1.578,1.578,0,0,0,.16-.015c.369-.13.729-.289,1.1-.4.539-.155,1.093-.254,1.632-.409.429-.125.838-.334,1.277-.434a7.694,7.694,0,0,1,1.547-.21c.269,0,.539.2.818.269a2.536,2.536,0,0,1,1.417.983c.18.245.384.489.18.883a3.642,3.642,0,0,0-.16,1.008c-.06.314-.155.619-.225.933a4.672,4.672,0,0,1-.1.539c-.17.474-.359.938-.554,1.4a1.425,1.425,0,0,1-.2.319,3.13,3.13,0,0,1-2.35,1.347,1.88,1.88,0,0,1-1.033-.249,1.275,1.275,0,0,0-.344-.06,5.8,5.8,0,0,0-1.048-.135,3.171,3.171,0,0,0-1.123.225,8.287,8.287,0,0,0-1.567.838,15.858,15.858,0,0,0-1.322,1.208c-.18.16-.4.269-.569.439-.389.409-.738.858-1.143,1.262a8.089,8.089,0,0,1-.958.783c-.444.324-.918.609-1.367.928a.669.669,0,0,1-.978-.494c-.115-.419-.165-.853-.24-1.282.025,0,.045,0,.07-.01-.06-.888-.13-1.776-.175-2.665a7.149,7.149,0,0,1,0-1.223,15.782,15.782,0,0,1,.3-1.8A1.229,1.229,0,0,1,95.4,90.356ZM89.474,67.562a6.215,6.215,0,0,1,.494-1.158.48.48,0,0,1,.8-.05c.19.21.454.359.619.584a7.945,7.945,0,0,1,.509.9c.165.3.354.589.5.9.215.459.379.938.6,1.392.15.319.354.609.529.913l.9,1.587c.1.185.195.379.314.554.145.21-.065.709-.334.8-.384.13-.768.269-1.148.419A1.376,1.376,0,0,1,91.9,73.78a16.053,16.053,0,0,0-.808-1.457c-.035-.06-.06-.13-.09-.195.025-.015.05-.035.075-.05a2.6,2.6,0,0,1-.249-.329c-.259-.5-.434-1.053-.729-1.532a.343.343,0,0,1-.015-.04c-.135-.614-.514-1.168-.664-1.781A1.591,1.591,0,0,1,89.474,67.562Zm-5.963,5.209c.15-.145.225-.369.369-.524.459-.489.943-.953,1.4-1.437.2-.22.374-.474.569-.7a4.181,4.181,0,0,1,.838-.908c.195-.12.564.035.853.07.015,0,.025.045.045.055.833.284.843,1.088,1.118,1.731.145.339.364.649.529.983s.3.714.464,1.063c.09.195.215.374.319.559a1.265,1.265,0,0,0-.11.065c.085.18.185.354.254.544a9.5,9.5,0,0,0,.529,1.342,1.448,1.448,0,0,0,.719.519.848.848,0,0,1,.534.783A3.206,3.206,0,0,0,92,77.7c.05.334.135.669.19,1,.015.1-.025.22-.015.329.03.549.1,1.093.095,1.637a4.47,4.47,0,0,1-.145,1.317,11.36,11.36,0,0,1-.753,1.8c-.16.314-.434.274-.554-.04-.16-.4-.279-.813-.449-1.213a9.161,9.161,0,0,0-.509-.983c-.324-.564-.634-1.138-1.008-1.667-.314-.444-.719-.823-1.068-1.237a5.807,5.807,0,0,0-.409-.549c-.424-.379-.878-.719-1.307-1.093-.289-.254-.529-.559-.818-.808a5.926,5.926,0,0,0-1.2-.9A1.61,1.61,0,0,1,83.511,72.772Zm6.2,25.144c-.434.09-.883.1-1.312.185-.489.1-.973.245-1.457.369-.015,0-.03.02-.045.02-.768-.14-1.612.289-2.32-.3a3.252,3.252,0,0,1-.424-.4c-.284-.339-.574-.684-.828-1.048a5.246,5.246,0,0,1-.524-.918c-.289-.644-.564-1.3-.808-1.961a7.275,7.275,0,0,1-.349-1.292c-.1-.554-.14-1.118-.215-1.677-.02-.145-.08-.284-.1-.429-.085-.584-.17-1.163-.225-1.746-.02-.195.09-.4.07-.594-.05-.6-.14-1.193-.2-1.791-.02-.215.025-.434.02-.649-.01-.5-.03-1.008-.05-1.512s-.06-1.008-.045-1.507c.01-.384.12-.768.135-1.153.02-.549-.025-1.1,0-1.647.01-.309.1-.619.145-.933a9.9,9.9,0,0,1,.2-1.447,1.978,1.978,0,0,1,.554-.7,1.036,1.036,0,0,1,.449-.279c.6-.18.8.369,1.148.669.235.2.5.374.748.574.4.329.788.669,1.183,1.008.03.025.045.065.075.09a8.127,8.127,0,0,1,.8.679c.384.429.734.888,1.088,1.342.254.324.524.639.743.983s.339.7.519,1.048c.1.2.24.394.359.594l-.11.06c.075.175.135.364.225.529a4.976,4.976,0,0,1,.269,1.911c0,.045-.015.1,0,.14a2.776,2.776,0,0,1,0,1.731c-.095.494-.16.993-.215,1.492-.08.729-.165,1.462-.19,2.2,0,.135.2.349.364.409a1.607,1.607,0,0,0,1.761-.329,1.842,1.842,0,0,1,1.437-.2c.249.21.294.743.364.843a.181.181,0,0,1,.035.085c.01.479.155.988.125,1.482a19.38,19.38,0,0,1-.22,2.151,1.931,1.931,0,0,1-.444.9,2.915,2.915,0,0,1-1.637.719C90.437,97.681,90.083,97.836,89.714,97.915Z" transform="translate(-79.061 -52.117)" fill="#ab8e53"/>
      <path id="Path_151" data-name="Path 151" d="M174.223,94.288h0a.518.518,0,0,1,.05.02.478.478,0,0,0,.2.055h.03c.369-.03.424-.294.459-.489.01-.05.02-.1.04-.175v-.01a5.844,5.844,0,0,1,.195-.808,6.3,6.3,0,0,0,.2-.833l.025-.085a1.465,1.465,0,0,0,.055-1.023.454.454,0,0,0-.284-.22c-.249-.07-.7-.07-.893.644a7.549,7.549,0,0,0-.284,1,6.82,6.82,0,0,1-.274.968C173.609,93.844,173.769,94.164,174.223,94.288Z" transform="translate(-126.475 -71.443)" fill="#ab8e53"/>
      <path id="Path_152" data-name="Path 152" d="M170.687,105.246a.262.262,0,0,0,.085.01.588.588,0,0,0,.2-.045c.02,0,.04-.015.055-.02a.881.881,0,0,0,.743-.694l.125-.559c.075-.334.11-.5.23-1.083a4.012,4.012,0,0,1,.235-.783,4.645,4.645,0,0,0,.249-.813c.14-.5-.01-1.128-.484-1.257h0a.692.692,0,0,0-.709.3,1.82,1.82,0,0,0-.339.654,5.146,5.146,0,0,1-.289.743,6.387,6.387,0,0,0-.3.763,3.719,3.719,0,0,0-.19.838,3.523,3.523,0,0,1-.17.758A.963.963,0,0,0,170.687,105.246Z" transform="translate(-124.666 -76.098)" fill="#ab8e53"/>
      <path id="Path_153" data-name="Path 153" d="M176.136,108.206a1.186,1.186,0,0,0,.195-.015.484.484,0,0,0,.309-.225.467.467,0,0,1,.08-.09,3.661,3.661,0,0,1,.709-.554,4.156,4.156,0,0,0,.778-.609,5.892,5.892,0,0,0,.634-.719,4.686,4.686,0,0,1,.609-.679c.549-.474.694-.873.419-1.188a.489.489,0,0,0-.334-.18,1.074,1.074,0,0,0-.7.374l-.09.08s0,0-.01,0c-.389.294-.584.424-.788.564s-.389.259-.753.529a6.556,6.556,0,0,1-.763.5,7.581,7.581,0,0,0-.838.559,1.042,1.042,0,0,0-.155,1.372A.883.883,0,0,0,176.136,108.206Z" transform="translate(-127.251 -78.085)" fill="#ab8e53"/>
      <path id="Path_154" data-name="Path 154" d="M193.646,113a2.78,2.78,0,0,0-1.193-.08v0c-.694.03-1.063.03-1.412.035-.384,0-.753,0-1.532.045-.3.03-.873.08-.813.729a.645.645,0,0,0,.254.559.75.75,0,0,0,.374.085,2.263,2.263,0,0,0,.464-.065l.12-.025a13.911,13.911,0,0,1,1.422-.21c.344-.035.7-.075,1.362-.195l.065,0c.4-.035,1.068-.095,1.023-.654A.27.27,0,0,0,193.646,113Z" transform="translate(-133.987 -82.569)" fill="#ab8e53"/>
      <path id="Path_155" data-name="Path 155" d="M159.88,91.714a.852.852,0,0,0,.04-.689v0c-.195-.459-.274-.7-.354-.943s-.17-.5-.374-.993a4.725,4.725,0,0,0-.514-.943,4.653,4.653,0,0,1-.479-.883,7.982,7.982,0,0,1-.349-.963,8.287,8.287,0,0,0-.349-.978,1.293,1.293,0,0,0-.339-.529.61.61,0,0,0-.649-.115.488.488,0,0,0-.294.264,1.056,1.056,0,0,0,.1.773l.03.07c.19.564.264.8.354,1.093.065.21.145.454.279.863.16.484.225.734.289.978s.135.5.294,1c.155.474.215.719.274.963s.125.514.3,1.028a.983.983,0,0,0,.913.559.457.457,0,0,0,.08,0,.627.627,0,0,0,.235-.09A.93.93,0,0,0,159.88,91.714Z" transform="translate(-117.696 -68.405)" fill="#ab8e53"/>
      <path id="Path_156" data-name="Path 156" d="M162.794,104.309c.11.249.22.5.419,1.013a1.042,1.042,0,0,0,.569.539.854.854,0,0,0,.324.065.66.66,0,0,0,.264-.055.834.834,0,0,0,.374-1.133,7.429,7.429,0,0,1-.3-1.013,8.156,8.156,0,0,0-.344-1.1.922.922,0,0,0-1.721.659C162.569,103.8,162.684,104.055,162.794,104.309Z" transform="translate(-120.774 -77.128)" fill="#ab8e53"/>
      <path id="Path_157" data-name="Path 157" d="M177.991,115.015a1.264,1.264,0,0,0,.8.264,1.77,1.77,0,0,0,.319-.03l.963-.135c.459-.065.743-.1,1.572-.21.544-.05.868-.374.833-.823-.045-.514-.988-.559-1.327-.529-.09,0-1.317.02-2.585.01h-.02a.854.854,0,0,0-.574.3.883.883,0,0,0-.19.649A.719.719,0,0,0,177.991,115.015Z" transform="translate(-128.522 -82.894)" fill="#ab8e53"/>
    </g>
  </g>
</svg>
