<svg xmlns="http://www.w3.org/2000/svg" width="822" height="785.456" viewBox="0 0 822 785.456">
  <g id="Group_42" data-name="Group 42" transform="translate(0.049 0.018)">
    <path id="Path_90" data-name="Path 90" d="M154.032,154.2c-3.3.267-6.592.668-9.844.935-3.3.267-6.592.668-9.844.935-3.3.267-6.637.089-9.933.356s-6.592.4-9.888.668-6.592.49-9.889.757-6.548.98-9.844,1.247-6.592.356-9.888.624-6.548.624-9.844.891-6.548.846-9.844,1.114-6.592.312-9.888.579-6.548.846-9.844,1.158c-3.3.267-6.592.178-9.888.445s-6.5.8-9.8,1.114c-.045.668-.089,1.247-.134,1.915,2.851.312,5.791.089,8.641.4s5.657,1.158,8.508,1.158a73.625,73.625,0,0,0,8.864-.178c2.94-.312,5.835-.535,8.775-.757,3.163-.267,6.325-.8,9.488-1.069s6.281-1.2,9.443-1.47,6.414.445,9.577.178l9.488-.8c3.163-.267,6.281-1.292,9.443-1.559s6.414.223,9.577-.045,6.236-1.559,9.4-1.826,6.414.312,9.577.045c3.519-.312,6.949-1.069,10.467-1.425s7.038-.4,10.512-.757c3.519-.356,6.949-1.114,10.468-1.47,2.806-.267,5.791.134,5.791-4.811-3.3.267-6.548.624-9.844.891C160.624,153.753,157.328,153.931,154.032,154.2Z" transform="translate(88.806 527.01)" fill="none"/>
    <path id="Path_91" data-name="Path 91" d="M33.473,125.513c3.029.356,6.058.535,9.087.713,3.073.178,6.147.045,9.265.045,3.073-.045,6.191.356,9.265.356,3.252,0,6.5.267,9.71.356,3.252.045,6.548.089,9.755-.134,2.94-.223,6.013,0,9.087.045a12.5,12.5,0,0,0,8.73-2.851c-2.9-4.187-7.082-3.385-10.646-3.43-3.252-.045-6.5.178-9.755.134s-6.5-.356-9.71-.4c-3.252-.045-6.5.223-9.755.178s-6.5-.445-9.71-.49c-3.252-.045-6.5.223-9.755.178s-6.5-.223-9.71-.223c-1.782,0-3.519,1.158-5.3,1.737.089.891.223,1.693.356,2.628C27.46,124.667,30.444,125.157,33.473,125.513Z" transform="translate(83.175 414.539)" fill="none"/>
    <path id="Path_92" data-name="Path 92" d="M38.254,169.055c.089,1.247,1.336,2.361,2.405,3.964,4.855-2.94,3.118-6.1,2.628-9-.49-2.984-1.024-5.969-1.782-8.819-.757-2.94-1.782-5.746-2.806-8.552s-2.316-5.523-3.563-8.24c-1.292-2.717-2.272-5.568-3.786-8.2-1.514-2.583-3.3-5.39-5.033-7.884-4.5,1.648-3.875,4.41-2.583,6.86,1.648,3.163,3.652,6.147,5.211,9.354s2.806,6.548,4.1,9.888a81.83,81.83,0,0,1,3.3,10.156A66.8,66.8,0,0,1,38.254,169.055Z" transform="translate(78.885 422.622)" fill="none"/>
    <path id="Path_93" data-name="Path 93" d="M71.916,140.021c-3.831.624-5.791,3.652-7.127,6.949-1.024,2.494-2.183,4.944-3.207,7.572-.98,2.45-1.737,5.033-2.762,7.706a22.574,22.574,0,0,0,11.626,1.069,16.453,16.453,0,0,0,9.844-6.1c1.737-2.138,3.563-4.276,5.479-6.325s3.742-4.142,5.568-6.236a25.912,25.912,0,0,0,2.806-4.811,39.42,39.42,0,0,0-11.18-1.2C79.221,138.863,75.524,139.442,71.916,140.021Z" transform="translate(203.349 478.828)" fill="none"/>
    <path id="Path_94" data-name="Path 94" d="M93.735,137.817c-1.247-3.207-2.45-6.414-3.875-9.4-1.47-3.029-3.207-5.746-4.855-8.641-1.6-2.851-3.073-5.924-4.766-8.686S76.5,105.88,74.582,103.3c-1.915-2.539-3.831-5.122-5.791-7.617-.846-1.069-2.539-.98-5.211-1.96.935,2.806.98,3.073,1.158,3.3,1.737,2.316,3.385,4.766,5.033,7.171,1.693,2.405,3.43,4.722,5.033,7.171s3.252,4.9,4.766,7.483,2.673,5.479,4.053,8.151,2.583,5.479,3.786,8.33c1.2,2.806,2.272,5.7,3.3,8.641.98,2.94,2.183,5.746,2.984,8.864.579,2.316,2.049,4.5,3.831,8.374,1.915-6.191.713-10.111-.312-13.719A99.488,99.488,0,0,0,93.735,137.817Z" transform="translate(219.792 323.795)" fill="none"/>
    <path id="Path_95" data-name="Path 95" d="M146.51,152.038c-.713-2.806-1.6-5.568-2.45-8.285-.891-2.762-1.915-5.39-2.94-8.062s-1.826-5.479-2.984-8.062c-1.158-2.539-2.316-5.167-3.608-7.617-1.247-2.361-2.583-4.722-3.964-6.993s-3.073-4.232-4.543-6.414-2.851-4.5-4.321-6.637c-1.693-2.45-4.053-5.746-8.24-2.183a66.84,66.84,0,0,1,5.924,6.37,76.945,76.945,0,0,1,4.944,7.439c1.6,2.583,3.252,5.033,4.632,7.75s2.45,5.7,3.7,8.552,2.717,5.568,3.92,8.463,2.272,5.924,3.3,8.909,2.405,5.88,3.207,9a76.777,76.777,0,0,1,1.292,9.755,3.287,3.287,0,0,1-1.737.356c-2.628-.089-5.3-.356-7.929-.445s-5.3.089-7.929,0-5.3.49-7.973.4c-2.628-.089-5.3-1.114-7.929-1.2s-5.3-.134-7.929-.223-5.3.579-7.973.49c-2.717-.089-5.479-.846-8.2-.846s-5.434,1.114-8.151,1.2c-1.069.045-2.316.98-3.7,2.094,1.2.668,4.053,1.2,7.572,1.737,2.183.356,4.677.935,7.439,1.247,2.316.267,4.855.045,7.483.223,2.405.178,4.9.178,7.483.356,2.45.134,4.944.579,7.483.668,2.494.089,4.989.713,7.483.757,2.539.045,5.033-.846,7.483-.8,2.583,0,5.122-.045,7.483-.089,2.717-.045,5.212-.089,7.439-.223,3.073-.223,5.612-.045,7.394-.445-.356-2.9-.579-5.88-1.158-8.73C147.8,157.739,147.267,154.844,146.51,152.038Z" transform="translate(258.997 332.425)" fill="none"/>
    <path id="Path_96" data-name="Path 96" d="M123.815,102.7c.8.089,1.648-1.47,2.494-2.227-.089-.713-.223-1.336-.312-2.049-2.539-.668-4.989-1.782-7.528-2.049-2.717-.267-5.434-.4-8.2-.668-2.717-.267-5.434-.356-8.2-.579-2.717-.223-5.434-.935-8.151-1.158s-5.434-.668-8.151-.935c-2.851-.267-5.657-.713-8.508-1.114s-5.7-.312-8.552-.579c-1.247-.089-2.628,1.158-3.875,1.826.089.668.312,1.6.4,2.272,2.405.668,4.855.98,7.305,1.514,2.405.535,4.811,1.2,7.26,1.6s4.9.4,7.35.713,4.855.935,7.3,1.158,4.9.134,7.35.312,4.9.535,7.35.713,4.9-.223,7.35-.045C118.959,101.633,121.365,102.435,123.815,102.7Z" transform="translate(224.144 315.571)" fill="none"/>
    <path id="Path_97" data-name="Path 97" d="M138.909,101.47a68.657,68.657,0,0,0,10.334,2.138c2.673.312,5.39.356,8.107.668s5.39.8,8.062,1.069c2.717.267,5.434.223,8.107.445a78.252,78.252,0,0,0,8.552,0c.089-.891.134-1.648.223-2.539-1.158-.757-2.183-2.138-3.341-2.272-2.361-.267-4.722-.4-7.082-.668s-4.721-.4-7.082-.624c-2.361-.267-4.677-.935-7.082-1.158-2.361-.223-4.677-.624-7.082-.891-2.361-.223-4.721-.535-7.082-.757-2.316-.223-4.766-.045-7.171-.312C137.751,99.243,138.2,101.247,138.909,101.47Z" transform="translate(471.228 333.64)" fill="none"/>
    <path id="Path_98" data-name="Path 98" d="M110.739,57.282c3.029.089,5.924-.089,8.953-.178A15.3,15.3,0,0,0,122.1,55.01a57.966,57.966,0,0,0-14.387,2.272C108.69,57.282,109.714,57.237,110.739,57.282Z" transform="translate(372.228 190.081)" fill="none"/>
    <path id="Path_99" data-name="Path 99" d="M70.765,180.513c-3.563.134-7.171-.446-10.779-.446-3.563,0-7.171-.356-10.779-.178a86.594,86.594,0,0,0-10.735.98A59.073,59.073,0,0,0,27.96,184.3c3.385.4,7.082.312,10.468.535s6.77,1.336,10.156,1.425,6.815.089,10.245.089c3.385,0,6.815-.846,10.2-.935s6.815.534,10.245.356c3.385-.134,6.771-1.381,10.156-1.559s6.86.49,10.245.312,6.77-.8,10.2-.935c3.385-.134,6.771-.134,10.2-.223,0-3.875.045-7.483.089-11.047a100.846,100.846,0,0,0-.178-11.047,62.085,62.085,0,0,0-1.514-8.686,68.307,68.307,0,0,0-2.628-8.419,81.014,81.014,0,0,0-3.029-8.329c-1.292-2.628-2.539-5.345-4.053-7.884-1.6-2.762-3.964-6.147-9.265-4.721,1.693,2.717,3.563,5.791,4.989,8.6,1.47,2.851,2.583,5.835,3.742,8.73,1.158,2.984,2.272,5.924,3.118,8.953a90.141,90.141,0,0,1,2.361,9.22,95.023,95.023,0,0,1,.891,9.488c.223,3.118.534,6.459.445,9.666-3.742.178-7.572.044-11.225.223-3.7.178-7.394.668-11.047.846-3.7.178-7.394.178-11.047.356C78.07,179.622,74.418,180.38,70.765,180.513Z" transform="translate(96.751 424.571)" fill="none"/>
    <path id="Path_100" data-name="Path 100" d="M144.249,114.2c1.425,2.45,2.9,4.811,4.276,7.216,1.381,2.45,2.806,4.855,4.142,7.3a52.7,52.7,0,0,1,2.628,7.171c.846,2.405,1.514,4.9,2.45,7.26.8,2,1.96,4.766,5.078,3.341a28.582,28.582,0,0,0-.668-5.835c-.891-2.762-1.737-5.568-2.762-8.24-1.069-2.673-2.227-5.256-3.474-7.84-1.2-2.583-2.673-4.944-4.053-7.35-1.381-2.45-2.673-4.944-4.187-7.26-1.514-2.272-3.252-4.321-4.944-6.459-1.292-1.693-2.539-3.563-4.142-4.677-.668-.445-1.915.535-2.762.757q2.138,3.675,4.276,7.216C141.531,109.3,142.868,111.791,144.249,114.2Z" transform="translate(469.362 341.047)" fill="none"/>
    <path id="Path_101" data-name="Path 101" d="M125.026,113.889a70.763,70.763,0,0,1,4.766,7.394c1.247,2.316,2.316,5.078,3.7,8.285,1.069,2.45,2.405,5.122,3.608,8.374.98,2.583,1.782,5.612,2.9,8.819.757,2.183,1.292,5.211,5.657,4.543-.846-3.563-1.425-6.5-2.316-9.4-.846-2.806-1.737-5.612-2.806-8.24-1.069-2.673-2.316-5.212-3.608-7.795s-2.673-4.944-4.053-7.394-2.583-5.078-4.053-7.394a76.982,76.982,0,0,0-4.9-6.9c-1.737-2.138-3.563-4.232-5.345-6.325-1.514-1.737-3.207-.8-3.7,1.871,1.915,2.717,3.474,5.167,4.989,7.216C121.819,109.524,123.511,111.662,125.026,113.889Z" transform="translate(396.961 335.029)" fill="none"/>
    <path id="Path_102" data-name="Path 102" d="M76.33,54.9a65.031,65.031,0,0,0,6.993-2.45,66.389,66.389,0,0,0,8.508-5.39C86.263,46.657,81.052,51.512,76.33,54.9Z" transform="translate(263.833 162.532)" fill="none"/>
    <path id="Path_103" data-name="Path 103" d="M156.8,206.046c2.717-1.114,5.122-3.43,7.3-6.5a33.823,33.823,0,0,0,5.434-10.512,37.733,37.733,0,0,0,1.069-11.848,44.424,44.424,0,0,0-1.114-11.269,30.83,30.83,0,0,0-4.321-10.423,19.866,19.866,0,0,0-7.884-7.216,11.946,11.946,0,0,0-10.378-.089,19.361,19.361,0,0,0-8.374,6.726,31.394,31.394,0,0,0-4.276,8.552,42.864,42.864,0,0,0-1.871,9.4,52.884,52.884,0,0,0,.534,9.532,42.078,42.078,0,0,0,1.871,9.309,30.066,30.066,0,0,0,4.454,8.374,17.571,17.571,0,0,0,7.839,5.88A12.86,12.86,0,0,0,156.8,206.046Z" transform="translate(457.213 507.99)" fill="none"/>
    <path id="Path_104" data-name="Path 104" d="M171.125,158.182a42.247,42.247,0,0,0-4.365-9.532c.312,2.717.713,5.434,1.114,8.151a83.532,83.532,0,0,1,.445,8.819,72.192,72.192,0,0,1-.267,8.775,57.1,57.1,0,0,1-1.336,8.641,54.269,54.269,0,0,1-2.183,8.508,45.858,45.858,0,0,1-4.41,8.24,26.587,26.587,0,0,1-6.236,6.86,23.722,23.722,0,0,1-8.374,4.1,43.47,43.47,0,0,1-9.443.935,25.472,25.472,0,0,0,8.909,3.3,14.959,14.959,0,0,0,9.265-.935c2.539-1.2,4.811-3.385,7.216-6.1a37.244,37.244,0,0,0,5.835-8.641c1.47-3.029,2.049-6.5,2.94-9.978.846-3.341,1.96-6.681,2.272-10.156a63.83,63.83,0,0,0,.356-10.512A56.445,56.445,0,0,0,171.125,158.182Z" transform="translate(470.191 513.538)" fill="none"/>
    <path id="Path_105" data-name="Path 105" d="M172.059,163.7c2.583,0,5.167.312,7.75.356s5.122.178,7.706.223c-.4-2.717-.935-5.479-1.514-8.329-.579-2.717-1.158-5.479-1.871-8.24-.713-2.673-1.6-5.345-2.494-8.018-.846-2.673-1.871-5.256-2.851-7.795-.98-2.628-1.737-5.39-2.851-7.84-1.158-2.539-2.227-5.122-3.474-7.439-1.425-2.673-2.94-5.345-4.543-7.884s-3.474-4.811-5.122-7.305c-1.47-2.227-3.474-4.009-6.325-1.559,1.782,2.405,3.563,4.989,5.167,7.528,1.6,2.583,3.3,5.033,4.721,7.706,1.425,2.717,2.628,5.568,3.92,8.374s2.717,5.523,3.875,8.463c1.158,2.9,1.96,5.969,2.984,8.953,1.024,2.94,2.183,5.835,3.163,8.864.935,2.984,1.737,6.058,2.628,9.131-2.405-.089-4.766.4-7.082.356-2.405-.089-4.722-.713-7.082-.8-2.405-.089-4.722-.535-7.082-.624s-4.722-.312-7.082-.4-4.721.134-7.082.089c-2.183-.045-4.365.534-6.548.534-2.183-.044-4.365-.935-6.548-.935s-4.365.045-6.548.089c-1.2,0-2.183,1.559-3.652,2.227.713,1.292.846,2.9,1.292,2.94,2.583.356,5.211-.312,7.795-.045s5.122,1.247,7.706,1.425,5.167-.134,7.75-.045,5.167.445,7.75.49,5.167-.356,7.75-.312C166.892,163.839,169.475,163.7,172.059,163.7Z" transform="translate(429.258 340.981)" fill="none"/>
    <path id="Path_106" data-name="Path 106" d="M195.924,143.439c-.891-2.806-2.361-5.39-3.385-8.24-1.024-2.806-1.6-5.88-2.717-8.641-1.158-2.806-3.029-5.033-4.276-7.617-1.292-2.762-2.093-5.791-3.43-8.2a71.064,71.064,0,0,0-4.811-7.038,16.394,16.394,0,0,0-2.984-3.653c-.846-.579-2.049-.223-4.454-.535,1.6,2.361,3.163,4.722,4.588,7.127,1.47,2.494,2.806,5.078,4.1,7.617,1.336,2.583,2.717,5.122,3.92,7.795,1.247,2.673,2.494,5.3,3.608,8.018s1.871,5.657,2.9,8.463c1.024,2.762,1.915,5.612,2.851,8.463.935,2.806,1.871,5.256,2.762,8.107-2.494.312-4.009.98-5.791.935-2.673-.089-5.345-.4-8.018-.49s-5.345-.134-8.062-.267c-2.673-.134-5.345.045-8.062-.089-2.673-.134-5.345-.445-8.018-.579a51.058,51.058,0,0,0-9.042.4c-1.158.134-2.272,1.693-3.385,2.628,2.316.49,4.677.713,6.993,1.114s4.588.891,6.9,1.158c2.316.312,4.677-.045,6.949.178,2.316.223,4.632.935,6.9,1.069,2.316.134,4.632.624,6.949.668s4.632.267,6.949.267,4.632-.312,6.949-.356,4.41-.624,6.726-.757c-.4-2.762-.4-5.657-1.158-8.864C197.706,149.363,196.859,146.423,195.924,143.439Z" transform="translate(498.309 343.83)" fill="none"/>
    <path id="Path_107" data-name="Path 107" d="M164.192,105.364c1.693.178,3.92.713,4.053-4.053a62.362,62.362,0,0,0-8.285-1.96c-2.9-.312-5.791-.624-8.686-.8s-5.791-.223-8.686-.535c-2.316-.223-4.677-.4-6.993-.713s-4.588-1.069-6.949-1.381c-2.316-.312-4.632-.8-6.949-1.069-2.316-.312-5.3-.445-4.9,5.568,2.628.312,5.523.4,8.151.713s5.211.8,7.839,1.114,5.212.535,7.84.8c2.628.312,5.256.312,7.839.624,2.628.312,5.211.8,7.84,1.114S161.564,105.1,164.192,105.364Z" transform="translate(403.496 327.296)" fill="none"/>
    <path id="Path_108" data-name="Path 108" d="M119.417,136.991c-1.2-3.029-2.361-6.058-3.786-8.909s-3.163-5.479-4.722-8.2c-1.6-2.717-2.984-5.612-4.677-8.24s-3.652-4.944-5.523-7.394c-1.871-2.405-3.742-4.855-5.657-7.216-.846-1.025-2.494-.935-5.122-1.826a18.982,18.982,0,0,0,1.114,3.118c1.693,2.227,3.3,4.543,4.944,6.77,1.648,2.272,3.341,4.5,4.9,6.815,1.6,2.361,3.207,4.677,4.677,7.082,1.47,2.45,2.628,5.167,3.964,7.75,1.336,2.539,2.494,5.211,3.7,7.884,1.158,2.673,2.227,5.39,3.207,8.2.98,2.762,2.138,5.479,2.9,8.419.579,2.183,2,4.276,3.786,7.973,1.871-5.88.713-9.577-.267-13.006A93.944,93.944,0,0,0,119.417,136.991Z" transform="translate(310.812 328.942)" fill="none"/>
    <path id="Path_109" data-name="Path 109" d="M124.7,214.011a19.787,19.787,0,0,0,7.84-6.147,32.495,32.495,0,0,0,4.588-8.2,48.788,48.788,0,0,0,2.049-9.131,58.348,58.348,0,0,0,.98-9.265,53.1,53.1,0,0,0-.891-9.265,46.656,46.656,0,0,0-2.717-8.864,32.509,32.509,0,0,0-4.321-8.2,18.158,18.158,0,0,0-7.884-5.746,12.755,12.755,0,0,0-9.666-.267c-2.717,1.114-5.167,3.385-7.439,6.414a34.923,34.923,0,0,0-4.588,7.661c-1.158,2.762-1.336,5.746-1.782,8.73a48.285,48.285,0,0,0-1.158,8.819,62.159,62.159,0,0,0,.49,9.621,39.322,39.322,0,0,0,2.272,9.354,34.362,34.362,0,0,0,4.9,8.285,18.788,18.788,0,0,0,7.661,5.969C118.193,214.947,121.533,215.347,124.7,214.011Z" transform="translate(344.508 511.651)" fill="none"/>
    <path id="Path_110" data-name="Path 110" d="M149.323,138.76c-2.984,0-6.013,0-9,.178-3.073.178-6.1.534-8.953.891-3.207.356-6.236.935-8.864,1.425-3.786.713-7.082,1.336-8.909,2.272,1.737,2.539,3.43,5.256,5.167,7.75s3.385,5.033,4.989,7.661c1.6,2.673,3.43,5.212,4.855,8.018,1.425,2.762,2.628,5.7,4.1,8.463.668.045,1.648,0,2.316.045a97.1,97.1,0,0,1,3.875-10.245,94.981,94.981,0,0,1,5.434-9.488,81.224,81.224,0,0,1,6.191-9.042,78.636,78.636,0,0,1,7.706-7.706C155.426,138.76,152.441,138.76,149.323,138.76Z" transform="translate(392.574 479.376)" fill="none"/>
    <path id="Path_111" data-name="Path 111" d="M141.84,102.441c2.405.178,4.766.935,7.171,1.2.8.089,1.648-1.381,2.45-2.093-.089-.668-.178-1.247-.312-1.96-2.45-.624-4.9-1.693-7.394-1.915-2.673-.267-5.345-.4-8.018-.624s-5.345-.356-8.018-.579-5.345-.891-8.018-1.114-5.345-.624-8.018-.846c-2.806-.267-5.568-.668-8.329-1.025s-5.612-.312-8.374-.535c-1.2-.089-2.583,1.069-3.831,1.737.089.624.312,1.514.4,2.138,2.361.624,4.766.935,7.127,1.425s4.722,1.158,7.127,1.514,4.811.4,7.216.668,4.766.846,7.171,1.069,4.811.134,7.216.312,4.811.49,7.171.668C137.029,102.664,139.434,102.219,141.84,102.441Z" transform="translate(315.026 321.132)" fill="none"/>
    <path id="Path_112" data-name="Path 112" d="M141.86,170.015c-.312-3.073-.445-6.236-1.47-9.176a26.846,26.846,0,0,0-4.321-8.285c-.579-1.2-1.336-2.272-1.915-3.474l1.737,3.608c.134,1.826.178,3.7.267,5.568.178,3.073.535,6.147.8,9.22s.624,6.147.757,9.22a79.976,79.976,0,0,1-.535,9.22,50.139,50.139,0,0,1-2.049,10.6,48.276,48.276,0,0,1-4.232,9.888,47.022,47.022,0,0,1-6.013,8.953,20.068,20.068,0,0,1-9.844,5.791,35.164,35.164,0,0,1-11.626.935,18.373,18.373,0,0,0,7.706,4.009,15.736,15.736,0,0,0,8.508-.089,19.259,19.259,0,0,0,7.171-4.677,47.026,47.026,0,0,0,8.775-10.69,53.062,53.062,0,0,0,4.1-10.067,57.608,57.608,0,0,0,2.45-10.557c.445-3.608-.045-7.216-.223-10.824C141.682,176.206,142.172,173.089,141.86,170.015Z" transform="translate(357.41 515.024)" fill="none"/>
    <path id="Path_113" data-name="Path 113" d="M167,167.323c3.029-.178,5.523-.045,7.26-.445-.356-2.762-.579-5.568-1.158-8.285s-1.069-5.479-1.782-8.151-1.559-5.3-2.405-7.884c-.846-2.628-1.871-5.122-2.851-7.617-.98-2.539-1.782-5.211-2.9-7.617-1.158-2.405-2.272-4.9-3.563-7.216-1.247-2.227-2.539-4.5-3.92-6.637-1.336-2.138-3.029-4.009-4.454-6.058-1.425-2.094-2.762-4.232-4.232-6.281-1.648-2.316-3.964-5.479-8.062-2.094a67.02,67.02,0,0,1,5.791,6.013,70.643,70.643,0,0,1,4.811,7.082c1.559,2.45,3.207,4.766,4.543,7.35s2.405,5.434,3.608,8.107c1.247,2.717,2.672,5.3,3.831,8.062,1.2,2.762,2.227,5.612,3.252,8.419,1.025,2.851,2.361,5.568,3.118,8.552a69.258,69.258,0,0,1,1.247,9.265,3.008,3.008,0,0,1-1.693.312c-2.583-.089-5.211-.312-7.795-.4s-5.212.089-7.795.045c-2.583-.089-5.211.49-7.795.4s-5.167-1.069-7.795-1.158c-2.583-.089-5.212-.134-7.795-.223s-5.211.579-7.795.49c-2.673-.089-5.345-.8-8.018-.8s-5.345,1.069-8.018,1.158c-1.025.045-2.272.935-3.608,1.96,1.2.624,3.964,1.114,7.439,1.648,2.138.312,4.588.891,7.26,1.158,2.272.223,4.766.045,7.35.223,2.361.178,4.811.178,7.3.312,2.405.134,4.855.534,7.305.624s4.9.668,7.35.713c2.494.045,4.944-.8,7.35-.8,2.539,0,4.989-.045,7.3-.089C162.321,167.5,164.815,167.456,167,167.323Z" transform="translate(349.154 337.051)" fill="none"/>
    <path id="Path_114" data-name="Path 114" d="M62.99,60.042c-2.494-2.717-4.944-5.523-7.528-8.151a47.534,47.534,0,0,0-7.572-6.5,11.518,11.518,0,0,0-1.47-.757c.267.312.49.624.8.935C54.081,53,61.386,61.244,69.359,67.436c.4.312.757.535,1.158.8l-.045-.045C67.8,65.61,65.44,62.759,62.99,60.042Z" transform="translate(160.516 154.225)" fill="#ffecd1"/>
    <path id="Path_115" data-name="Path 115" d="M21.75,38.091c-.445-1.114-.98-2.227-1.47-3.341a79,79,0,0,0-.49,11.314c.134,4.142,4.454,5.256,7.26,3.742.045.045.089.089.134.089.223.134.4.267.624.4-.668-1.514-1.336-3.029-2.094-4.5C24.467,43.213,22.864,40.808,21.75,38.091Z" transform="translate(68.395 120.097)" fill="#ffecd1"/>
    <path id="Path_116" data-name="Path 116" d="M140.331,87.792A89.056,89.056,0,0,1,132,84.629c-2.673-1.247-5.211-2.806-7.795-4.276-2.539-1.514-4.811-3.385-7.26-5.122-2.361-1.693-4.722-3.474-6.993-5.434-2.227-1.915-4.187-4.1-6.281-6.281-2.049-2.093-4.588-3.786-6.5-6.1-2.762-3.341-4.677-5.969-6.592-7.439-2.9-2.272-5.434-2.583-8.6-.891,2.717,2.539,5.256,5.523,7.35,7.84,5.122,5.568,11.581,11.269,19.242,13.274,1.025,1.069,2.094,2.049,3.073,3.118,4.5,4.855,9.22,10.067,14.61,14.209a92.32,92.32,0,0,0,24.5,3.92A16.525,16.525,0,0,1,148.616,91C145.765,90.241,143.093,88.816,140.331,87.792Z" transform="translate(283.35 165.896)" fill="#ffecd1"/>
    <path id="Path_117" data-name="Path 117" d="M294.839,138.456a38.323,38.323,0,0,0-2.984-8.107,42.734,42.734,0,0,0-4.811-7.26,54.716,54.716,0,0,0-6.5-5.791c-2.183-1.826-4.187-3.964-6.681-5.568-2.138-1.425-4.855-1.915-7.3-2.9-2.405-.98-4.677-2.361-7.082-3.252-3.7-1.381-6.548-2.138-8.6-3.341-3.118-1.782-4.009-3.964-4.632-7.394a41.659,41.659,0,0,1-1.2-9.131c.045-4.053.935-8.062,1.114-12.116.134-2.851-.045-5.657-.178-8.329a67.013,67.013,0,0,0-1.292-8.2,58.659,58.659,0,0,0-1.559-8.151c-.891-2.673-2.806-4.855-4.009-7.305-1.247-2.45-1.915-5.256-3.519-7.528a59.55,59.55,0,0,0-5.345-6.37c-1.826-2-4.232-3.474-6.37-5.3-2.049-1.737-3.964-3.786-6.281-5.39-2.227-1.514-4.811-2.583-7.305-3.964a63.18,63.18,0,0,0-6.77-3.742c-2.361-1.024-4.9-1.648-7.35-2.45s-4.9-1.648-7.394-2.227-4.944-1.693-7.483-2.094c-2.539-.445-5.122-.535-7.706-.846A38.9,38.9,0,0,0,166.6.284,25.829,25.829,0,0,0,159.429.2a17.7,17.7,0,0,0-6.815,2.316c-.713.445-.4,1.559-.312,2.316.312,3.252,2.717,4.588,5.88,5.612,2.984.98,6.236,2.138,8.641,2.717,3.073.713,6.28.98,9.309,1.915s5.924,2.272,8.864,3.341c2.494,1.292,4.9,2.539,7.171,3.875,2.405,1.425,4.722,2.9,6.9,4.321,2.316,1.514,4.321,3.43,6.414,5.033,2.227,1.693,4.588,3.029,6.592,4.811,2.094,1.826,4.321,3.474,6.147,5.39a76.954,76.954,0,0,1,5.479,6.1c1.693,2.183,2.494,4.944,3.875,7.26,1.425,2.361,3.341,4.41,4.454,6.86a59.182,59.182,0,0,1,2.584,7.795,60.655,60.655,0,0,1,1.782,7.973,70.194,70.194,0,0,1,.579,8.151,3.872,3.872,0,0,1-2.984,3.7c-2.717.223-5.479-.535-8.285-.713-2.717-.134-5.479-.178-8.24-.312a64.457,64.457,0,0,0-8.24.356,33.884,33.884,0,0,0-7.973,1.648,3.219,3.219,0,0,0,.223,6.236c2.762.579,5.612.579,8.107,1.425,2.673.891,4.944,2.539,7.349,3.7a55.086,55.086,0,0,1,7.216,3.786,50.224,50.224,0,0,1,6.058,5.434c1.96,1.871,4.321,3.43,6.013,5.568,1.648,2.138,2.673,4.722,4.053,7.127a65.047,65.047,0,0,1,3.652,7.26c1.024,2.45,1.737,5.078,2.539,7.706.8,2.539,1.871,5.033,2.494,7.75.624,2.584,1.2,5.256,1.693,7.973.624,3.519,5.969,3.831,6.9.4a48.693,48.693,0,0,0,1.114-9.354c.267-3.163.356-6.281.49-9.354a72.328,72.328,0,0,1,.445-9.354,3.34,3.34,0,0,1,5.434-1.871c2.316,2,4.721,3.742,6.281,6.013a35.194,35.194,0,0,1,3.7,7.884,49.615,49.615,0,0,1,2.138,8.419c.49,2.494.713,5.033,1.069,7.572s1.114,4.989,1.336,7.528-.045,5.122.134,7.661.49,5.078.624,7.617.312,5.078.445,7.617c.089,2.272-.312,4.588.045,6.592.312,2,1.381,3.341,4.142,4.41,1.915-1.114,2.405-1.2,4.321-2.272.445-2.583,1.024-5.078,1.47-7.661s.846-5.167,1.292-7.75,1.158-5.122,1.6-7.706.089-5.3.49-7.884c.446-2.583.891-5.167,1.292-7.75a44.939,44.939,0,0,0,.757-8.6A34.988,34.988,0,0,0,294.839,138.456Z" transform="translate(525.762 0)" fill="#1a1a1a"/>
    <path id="Path_118" data-name="Path 118" d="M25.18,52.875l1.47,3.341c1.114,2.717,2.673,5.122,3.964,7.661.757,1.47,1.381,3.029,2.094,4.5a27.809,27.809,0,0,0,1.648,3.252c1.514,2.494,3.652,4.5,5.3,6.815,1.693,2.361,3.43,4.588,5.256,6.815s3.252,4.766,5.256,6.86c1.96,2.094,4.41,3.7,6.5,5.7a26.484,26.484,0,0,0,9.042,5.88A57.684,57.684,0,0,0,76.4,106.1c2.851.445,5.657,1.2,8.463,1.47,2.9.312,5.746.49,8.6.535a79.888,79.888,0,0,0,8.641,0,61.9,61.9,0,0,0,8.419-1.871,53.248,53.248,0,0,0,8.24-2.583,54.355,54.355,0,0,0,7.75-3.831,25.883,25.883,0,0,1,8.953-3.786,12.364,12.364,0,0,1,8.018.8,11.52,11.52,0,0,1,1.47.757,47.535,47.535,0,0,1,7.572,6.5c2.539,2.673,5.033,5.434,7.528,8.151s4.855,5.568,7.483,8.151l.045.045c2.094,2.093,4.276,3.92,6.414,5.746,2.272,1.915,4.187,4.187,6.5,5.835a82.432,82.432,0,0,0,7.26,4.855,79.723,79.723,0,0,0,7.929,3.7,79.247,79.247,0,0,0,8.107,3.3,69.6,69.6,0,0,0,8.6,1.6,79.691,79.691,0,0,0,8.686.624,70.627,70.627,0,0,0,8.686,0,82.8,82.8,0,0,0,8.686-.579c2.806-.445,5.657-.935,8.552-1.648,2.762-.668,5.657-1.2,8.463-2.138s5.434-2.405,8.151-3.519c2.762-1.114,5.612-1.96,8.24-3.3s5.122-2.984,7.617-4.543,5.078-2.984,7.483-4.766c2.361-1.737,4.365-3.964,6.592-5.969a62.912,62.912,0,0,1,7.706-6.37,5.8,5.8,0,0,1,.757-.356c3.163-1.693,5.7-1.381,8.6.891,1.915,1.514,3.831,4.142,6.592,7.439,1.915,2.316,4.5,4.009,6.5,6.1,2.094,2.183,4.053,4.365,6.281,6.281,2.272,1.96,4.632,3.742,6.993,5.434,2.45,1.737,4.721,3.652,7.26,5.122,2.583,1.514,5.122,3.029,7.795,4.276s5.523,2.138,8.329,3.163c2.762,1.024,5.434,2.45,8.329,3.207.713.178,1.425.312,2.138.445,2.183.445,4.41.713,6.637,1.158,2.9.534,5.746,1.514,8.73,1.871,2.9.356,5.924.445,8.909.579,2.94.134,5.924.178,8.909.178a97.144,97.144,0,0,0,11.492-.668c2.806.178,5.612-.4,8.419-.4a58.685,58.685,0,0,0,8.374-.49c2.984-.445,5.88-.935,8.73-1.381,2.94-.49,5.746-.267,8.686-.624a50.552,50.552,0,0,0,7.3,4.009c2.539,1.2,5.434,1.559,8.151,2.361,2.673.8,5.256,2.361,8.062,2.762a59.891,59.891,0,0,0,8.508.312,54.266,54.266,0,0,0,8.463-.49,61.386,61.386,0,0,0,8.24-1.96,55.5,55.5,0,0,0,7.84-3.163,70.087,70.087,0,0,0,7.661-3.608,3.162,3.162,0,0,1,4.009.356c2.183,2.094,4.766,3.563,7.038,5.345,2.361,1.871,4.321,4.143,6.681,5.746,2.494,1.648,4.9,3.43,7.439,4.811a72.8,72.8,0,0,0,8.018,3.786c2.762,1.114,5.835,1.2,8.641,2,2.851.8,5.568,2,8.463,2.45a109.387,109.387,0,0,0,17.639.356c2.9-.178,5.88-.178,8.819-.624,2.851-.49,5.7-1.247,8.6-1.96,2.806-.713,5.434-2.183,8.285-3.118a77.769,77.769,0,0,1,10.245-2c1.2-.089,1.782-1.2,2.049-2.093.713-.223,1.247-.846,1.96-1.114,2.539-1.024,6.058-1.47,7.171-4.276.935-2.361-.134-4.365-2.494-5.3-3.92-1.514-7.171,1.559-10.423,3.163a4.85,4.85,0,0,0-.49.267,54.038,54.038,0,0,1-7.127,2.539c-3.3,0-6.592-.624-9.844-.713-3.3-.089-6.592.49-9.844.223s-6.459-1.114-9.666-1.648a91.287,91.287,0,0,1-9.577-1.96,93.686,93.686,0,0,1-9.443-2.673,3.713,3.713,0,0,1-.356-6.637c2.806-1.425,5.479-3.073,8.151-4.543,2.762-1.514,5.612-2.806,8.2-4.41,2.673-1.648,5.033-3.653,7.528-5.434,2.539-1.826,5.568-3.029,7.884-5.033,2.361-2.049,3.964-4.855,6.058-7.127a3.321,3.321,0,0,0-4.1-5.167c-2.539,1.425-4.855,3.207-7.439,4.543s-5.167,2.673-7.84,3.831-5.612,1.6-8.374,2.494a76.873,76.873,0,0,1-8.374,2.138,75.987,75.987,0,0,1-8.552,1.2c-2.851.223-5.7.8-8.641.624a66.671,66.671,0,0,1-8.6-1.247,55.877,55.877,0,0,1-8.24-1.871c-2.762-.98-5.078-2.628-7.483-3.92-2.539-1.336-5.345-2.183-7.572-3.875a63.684,63.684,0,0,1-6.325-5.657c-2-1.96-3.875-4.1-5.7-6.281-1.782-2.138-3.3-4.588-4.9-6.86s-2.851-4.811-4.41-7.171c-1.514-2.361-2.984-4.766-4.5-7.127-1.871-2.94-6.77-1.47-6.815,2.227,0,3.118.178,3.118.178,6.236,0,2.272-2.361,4.321-4.543,3.742-2.984-.8-5.791-2-8.6-3.029-2.9-1.024-5.523-2.583-8.2-3.831-2.806-1.292-5.835-1.96-8.418-3.43-2.628-1.514-5.078-3.385-7.528-5.122-2.494-1.737-4.811-3.652-7.127-5.612s-4.855-3.7-6.993-5.835-4.053-4.5-6.058-6.815c-1.96-2.272-3.742-4.766-5.568-7.171s-3.7-4.766-5.434-7.305c-1.648-2.494-3.519-4.9-5.122-7.528-1.693-2.806-5.479-2.183-5.924,1.069a40.3,40.3,0,0,0-.356,8.6,41.085,41.085,0,0,0,1.826,8.419,53.461,53.461,0,0,0,3.43,7.884,78.71,78.71,0,0,0,4.276,7.483A66.9,66.9,0,0,0,414.8,88.42a70.921,70.921,0,0,0,5.7,6.325,61.466,61.466,0,0,0,6.815,5.078c2.361,1.648,4.454,3.652,6.993,4.9s5.39,1.737,8.107,2.628a69.237,69.237,0,0,0,8.2,2.227,71.426,71.426,0,0,0,8.374,1.292c2.762.223,5.568.4,8.508.356a69.278,69.278,0,0,1,9,.4,13.756,13.756,0,0,1,8.062,3.474c2.138,2.138,4.632,3.964,6.681,6.236a80.251,80.251,0,0,1,5.791,7.082,60.663,60.663,0,0,1,4.454,8.018c1.336,2.673,1.782,5.7,2.672,8.686.49,1.648.267,3.653-1.292,4.365-2.762,1.247-5.479,2.138-7.795,1.826-2.94-.4-5.924-.445-8.775-1.024-2.9-.624-5.523-2.227-8.285-3.073-2.851-.8-5.88-.98-8.6-2-2.762-1.024-5.122-2.9-7.795-4.142-2.628-1.247-5.568-2-8.107-3.474s-5.033-2.984-7.483-4.677c-2.361-1.648-4.5-3.742-6.77-5.657-2.272-2.762-4.721-4.766-4.944-9.176-.044-.935-1.114-2.583-2.138-2.673-4.811-.49-5.791,2.806-5.434,7.26a19.609,19.609,0,0,0,2,7.795c1.514,2.94,4.989,4.543,4.365,8.508a7.732,7.732,0,0,1-2.183,4.232,20.742,20.742,0,0,1-2.405,2.094c-3.074.089-5.969.267-8.953.178-1.025-.045-2,0-3.029,0-2.049,0-4.1.045-6.1-.134-3.029-.312-6.058-.534-9.042-1.025s-5.969-1.114-8.953-1.737c-2.94-.668-5.88-1.559-8.775-2.405s-5.657-2.227-8.508-3.207-5.7-1.96-8.552-3.118c-2.806-1.114-5.523-2.45-8.285-3.7s-5.746-2-8.463-3.385c-2.539-1.292-4.721-3.163-7.127-4.632-2.45-1.47-5.122-2.494-7.394-4.142-2.316-1.648-4.454-3.519-6.592-5.345-2.183-1.826-4.187-3.786-6.236-5.746s-4.365-3.7-6.28-5.746c-1.425-2-2.673-4.187-4.009-6.325-1.292-2.094-2.672-4.142-3.92-6.37-1.158-2.138-2.584-4.053-3.786-6.1s-1.425-4.588-2.361-6.815c-.713-1.782-1.069-3.608-2.984-4.543-3.786-1.826-5.7.49-5.835,4.187-.089,2.316,1.025,5.256,1.693,8.463.579,2.762.891,5.746,1.693,8.463.935,3.163,2.272,6.058,2.984,8.151-1.024,2.762-3.7,4.855-7.216,7.26-.044.045-.134.089-.178.134a66.4,66.4,0,0,1-8.508,5.39,56.606,56.606,0,0,1-6.993,2.45c-.4.134-.8.267-1.2.445-2.717,1.114-5.256,2.494-7.973,3.385-2.762.935-5.523,1.871-8.285,2.584-2.806.713-5.746.668-8.6,1.158s-5.612,1.782-8.463,2c-2.9.267-5.791-.134-8.686-.134s-5.746-.178-8.641-.356c-2.851-.223-5.746-.223-8.641-.668-2.851-.445-5.746-.624-8.6-1.247-2.806-.624-5.568-1.47-8.374-2.316-2.762-.8-5.434-1.915-8.151-2.94-2.673-.98-5.39-2-8.062-3.207-2.628-1.158-5.122-2.628-7.75-3.92-2.138-1.069-4.41-2.094-6.681-3.341a30.442,30.442,0,0,1-6.191-4.1c-1.693-1.559-2.717-3.831-4.053-6.191a2.824,2.824,0,0,1,1.336-4.276,71.143,71.143,0,0,0,7.171-4.722,55.475,55.475,0,0,0,7.127-4.811,71.167,71.167,0,0,0,5.791-6.325,73.48,73.48,0,0,0,5.212-6.77,82.317,82.317,0,0,0,4.722-7.127c1.782-3.118-1.871-6.86-4.944-5.078-2.45,1.425-4.232,3.252-6.325,4.588-2.405,1.559-5.211,2.361-7.706,3.608a73.971,73.971,0,0,1-7.572,3.7,53.352,53.352,0,0,1-8.24,1.782,51.911,51.911,0,0,1-8.329,1.024c-2.806.089-5.612.624-8.463.267a56.6,56.6,0,0,1-8.24-1.96,65.783,65.783,0,0,1-7.929-2.9c-2.806-1.247-5.7-2.361-8.419-3.786-2.717-1.381-5.345-3.029-8.062-4.5-2.673-1.47-5.167-3.385-7.839-4.855-2.673-1.514-5.7-2.361-8.419-3.786-3.92-2.094-7.795-3.964-11.759-5.924-.8,1.024-1.247,1.6-2.094,2.673,1.871,2.316,3.653,4.5,5.523,6.815s3.786,4.543,5.657,6.86c1.871,2.272,3.608,4.677,5.479,6.993,1.871,2.272,3.831,4.5,5.7,6.815,1.871,2.272,3.163,5.033,5.033,7.394,1.648,2.049.8,4.944-1.782,5.39a24.812,24.812,0,0,1-9.4.178c-3.029-.624-5.791-2.45-8.73-3.608C80.28,83.3,77.34,82.853,74.8,81.605c-2.583-1.247-4.811-3.163-7.26-4.588-2.494-1.425-5.167-2.494-7.528-4.1s-4.41-3.652-6.637-5.434-4.454-3.519-6.592-5.434c-.535-.757-.98-1.559-1.47-2.227-1.47-1.915-2.9-3.831-4.232-5.88s-2.583-4.1-3.786-6.191c-1.47-2.494-3.163-4.677-4.632-6.993-1.2-1.96-2.183-4.1-3.385-6.147-.223-.4-.4-.8-.668-1.2-1.2-1.737-1.96-3.073-4.321-3.7-4.5-1.2-6.147,2.984-5.924,6.548.267,4.232,2.583,8.24,4.989,11.982A43.639,43.639,0,0,0,25.18,52.875Z" transform="translate(63.54 101.972)" fill="#1a1a1a"/>
    <path id="Path_119" data-name="Path 119" d="M773.3,251.658c-.089-3.341.624-6.681.534-10.022-.045-3.207-1.158-6.414-1.2-9.666s.312-6.459.267-9.666-.045-6.459-.089-9.666-.579-6.459-.668-9.666c-.045-3.207.579-6.459.534-9.666s-.757-6.414-.846-9.666.98-6.459.935-9.666-.356-6.459-.4-9.666-.134-6.459-.223-9.666c-.045-3.207.134-6.459.089-9.666s-.757-6.414-.8-9.666c-.044-3.207.624-6.459.579-9.666s-1.2-6.414-1.292-9.666c-.045-3.207-.045-6.459-.089-9.666s.312-6.459.267-9.666-.4-26.681-.49-29.933c-.045-3.92.089-8.151-.356-13.006-3.875.178-7.973,1.158-11.67,1.336-3.831.178-7.617-.624-11.4-.445s-7.171,1.2-10.958,1.381c-.267,3.519-.713,5.568-.713,7.973,0,3.519-.624,27.26-.579,30.779,0,3.519.757,6.993.757,10.512s-.312,7.038-.312,10.512-.178,7.038-.134,10.512c0,3.519.49,6.993.49,10.512s.089,6.993.089,10.512c.045,3.519-.534,7.038-.534,10.512.044,3.608.4,7.216.445,10.824s.445,7.216.49,10.824-.089,7.216-.045,10.824-.089,7.216,0,10.824c.045,3.608.312,7.216.356,10.824.044,3.385-.446,6.77-.356,10.111s.535,6.726.579,10.111c.089,3.385.178,6.726.267,10.111s-.089,6.77,0,10.111.089,6.726.134,10.111c.089,3.385.668,6.726.757,10.111s.535,6.726.624,10.111c.089,4.232-2.227,7.661-6.815,7.884-4.721.223-9.443-.045-14.165-.267-4.855-.223-8.641-3.608-10.2-8.2a83.039,83.039,0,0,0-3.341-7.661,43.132,43.132,0,0,0-3.964-7.349c-1.559-2.316-3.207-4.543-4.944-6.77-1.737-2.183-3.653-4.232-5.434-6.414s-3.608-4.321-5.3-6.548a28.8,28.8,0,0,0-8.374-7.929,35.628,35.628,0,0,0-11-3.7c-3.252-.624-6.548-.935-9.8-1.559s-6.459-1.47-9.71-2-6.459-1.648-9.71-2c-3.341-.356-6.637-.891-9.977-1.247s-6.637-.757-9.978-1.114-6.726-.223-10.022-.535c-3.341-.356-6.681-.267-10.022-.624s-6.681-.668-9.977-.98c-3.341-.356-6.592-1.425-9.933-1.782-3.341-.312-6.637-.891-9.978-1.247-3.341-.312-6.726.134-10.067-.178s-6.637-1.114-9.933-1.425c-3.385-.312-6.815-.045-10.2-.4-3.385-.312-6.681-1.559-10.067-1.871s-6.815,0-10.2-.312-6.726-.891-10.111-1.2l-10.156-.935c-3.385-.312-6.726-.757-10.111-1.069s-6.771-.312-10.156-.624-6.771-.312-10.156-.624-6.726-1.025-10.111-1.336-6.726-.8-10.111-1.114-6.815.134-10.2-.134c-3.385-.312-6.681-1.336-10.067-1.648s-6.77-.535-10.156-.846-6.771-.49-10.156-.8c-3.252-.267-6.5-.579-9.755-.846l-9.755-.8c-3.252-.267-6.5-.579-9.755-.846s-6.548-.134-9.8-.4-6.459-1.069-9.71-1.336-6.5-.713-9.755-.98-6.592.356-9.8.089-6.459-1.2-9.71-1.47-6.5-.49-9.755-.757-6.548.045-9.8-.178-6.459-1.2-9.71-1.47-6.548,0-9.8-.267-6.459-1.069-9.71-1.336-6.548-.045-9.8-.312c-3.3-.267-6.548-.935-9.8-.8a79.322,79.322,0,0,0-9.8.891c-3.207.535-6.459,1.247-9.621,2.094-3.118.846-5.924,2.762-9,3.964-2.984,1.158-6.1,1.826-9.087,2.984-2.94,1.158-6.013,2.049-8.953,3.3-2.94,1.2-5.835,2.628-8.73,3.875-2.9,1.292-5.612,2.984-8.508,4.365a82.316,82.316,0,0,0-9.755,5.256c-3.073,2.049-5.791,4.677-8.641,6.993-2.9,2.361-6.147,4.365-8.73,7.038s-4.365,6.191-6.949,8.864c-2.405,2.494-5.167,4.543-7.216,7.127-2.138,2.717-3.385,5.924-5.078,8.775a80.478,80.478,0,0,0-4.543,8.953c-1.336,3.118-3.341,5.969-4.232,9.22s-.891,6.681-1.336,10.067a83.349,83.349,0,0,0-.445,10.067,95.457,95.457,0,0,0,.223,10.067,98.847,98.847,0,0,0,1.025,10.067c.668,3.519.713,6.681,1.381,11.269-5.211.223-9.042,1.069-13.274,1.025-3.207-.045-6.414-.267-9.621-.356s-6.414.134-9.621.045-6.414-.535-9.621-.624-6.414.178-9.621.134-6.414-.312-9.621-.356c-3.207,0-6.414.267-9.621.312a55.719,55.719,0,0,0-10.067,1.114,39.984,39.984,0,0,0-9.666,2.94c-2.851,1.425-5.39,3.3-8.062,4.9-2.717,1.648-5.3,3.385-7.795,5.256a86.209,86.209,0,0,0-7.26,5.969c-2.272,2.183-4.766,4.142-6.815,6.548a80.15,80.15,0,0,0-5.568,7.661,77.943,77.943,0,0,0-4.677,8.2A88.426,88.426,0,0,0,4.4,382.969c-1.47,3.7-2.628,7.572-3.964,11.314a52.927,52.927,0,0,0-.4,10.289c.178,5.122,0,5.122,0,10.245s.178,5.122.178,10.245-.267,5.167-.045,10.245a39.894,39.894,0,0,1,1.559,4.187c1.069,3.563,2.361,7.038,3.43,10.6S7.43,457.178,8.5,460.7c1.069,3.563,2.539,6.993,3.563,10.557.49,1.693.312,3.162,1.024,5.3-3.118.891-5.345,1.96-9.087,3.029,0,3.385-.445,6.815-.445,10.2s1.024,6.77,1.069,10.111c0,3.385-.535,6.77-.49,10.111.045,3.92,3.118,4.811,6.325,5.657,2.94.757,5.791,1.737,8.73,2.494s5.969,1.069,8.909,1.871,5.791,1.782,8.73,2.539c2.94.8,5.969,1.2,8.864,1.96,3.118.846,6.1,2.272,9.22,3.118s6.191,1.915,9.309,2.762l9.354,2.539c3.118.846,6.5.8,9.621,1.693,3.118.846,5.969,2.673,9.087,3.563s6.459.935,9.577,1.826,6.236,1.782,9.309,2.717a53.929,53.929,0,0,0,9.666,1.96,74.56,74.56,0,0,0,9.888.8c3.341-.045,6.637.089,9.978-.134,3.3-.267,6.592-1.069,9.888-1.336,3.207-.267,6.5.178,9.755-.134,3.207-.267,6.414-.98,9.621-1.247,3.207-.312,6.459-.624,9.666-.891,3.207-.312,6.414-.891,9.621-1.158s6.5.267,9.755-.045c3.207-.267,6.37-1.336,9.621-1.6,3.207-.267,6.459-.356,9.71-.623a11.532,11.532,0,0,1,7.572,2.984c2.762,2.583,5.167,5.3,8.107,7.216a50.473,50.473,0,0,0,20.445,6.77,57.1,57.1,0,0,0,10.779.579c3.43-.178,6.9.446,10.378.4s6.9-.757,10.334-.713,6.9.089,10.334.223c3.341.178,6.637.757,9.71.356a47.245,47.245,0,0,0,9.4-2.583,45.35,45.35,0,0,0,9-3.653,46.731,46.731,0,0,0,7.75-5.969c2.316-2.138,3.831-5.078,5.835-7.751a28.5,28.5,0,0,1,5.969-5.7,20.214,20.214,0,0,1,7.349-3.608c2.494-.624,5.167-.044,8.151.178,3.029.223,5.88-.089,9.577-.089.757,2.762,1.693,4.944,2.227,7.617.624,3.073,1.648,6.013,2.494,8.953.846,2.984,1.915,5.88,2.984,8.775,1.114,2.9,2.049,5.88,3.385,8.641s3.341,5.167,4.944,7.884a62.647,62.647,0,0,0,6.013,8.819,65.628,65.628,0,0,0,15.991,14.3,75.752,75.752,0,0,0,9.71,4.811,90.892,90.892,0,0,0,10.378,3.073c3.43-.312,6.86-.846,10.2-1.158,3.43-.312,6.815-.49,10.2-.8s6.815-.312,10.2-.624,6.726-1.381,10.111-1.693,6.815.044,10.245-.267c3.385-.312,6.681-1.114,10.111-1.425,2.94-1.381,6.013-2.405,8.641-4.142,2.672-1.782,4.855-4.231,7.127-6.459a40.861,40.861,0,0,0,6.1-7.349c1.871-2.851,4.143-5.434,5.746-8.463,1.6-2.984,2.628-6.281,4.142-9.354s3.252-5.969,4.811-9c1.2-2.316,2.049-4.41,3.786-8.24,1.782,2.984,2.717,5.523,4.143,8.062,1.693,2.9,3.385,5.479,5.122,8.018,1.826,2.628,4.321,4.633,6.325,6.9a60.311,60.311,0,0,0,6.637,6.459,52.572,52.572,0,0,0,7.483,5.568,47.941,47.941,0,0,0,8.6,3.786c2.9.846,6.1.935,9.309,1.247a58.3,58.3,0,0,0,9.354.445c4.053-.312,8.107-.579,12.2-.624s8.107.223,12.16.534c3.3.267,6.459-.534,9.532-1.025a42.641,42.641,0,0,0,9.176-2.316,50.9,50.9,0,0,0,8.73-3.92,56.878,56.878,0,0,0,7.038-5.924,63.366,63.366,0,0,0,6.147-6.771,62.164,62.164,0,0,0,5.122-7.528,81.269,81.269,0,0,0,4.232-8.062c1.247-2.717,2.539-5.479,3.563-8.374,1.069-3.073,2.45-6.058,3.252-9.176.8-3.162,1.158-6.37,1.648-9.577s1.336-6.37,1.514-9.621c.223-3.252-.178-6.5-.267-9.755s-.178-6.459-.535-9.71c-.356-3.207-.623-6.459-1.247-9.666-.624-3.163-1.559-6.281-2.45-9.4-.8-2.762-1.648-5.657-2.762-9.933,2.94.4,5.924.98,8.731,1.381,2.94.4,5.835.356,8.686.757,2.9.4,5.657,1.6,8.463,2,2.9.4,5.746.668,8.641,1.069,3.652.49,7.349.356,10.958.98s7.216,1.425,10.824,1.871a85.682,85.682,0,0,0,11.136,1.114c1.247-3.207,1.6-6.681,2.094-9.8a39.868,39.868,0,0,0,.445-9.71,36.659,36.659,0,0,0-1.96-9.532,38.141,38.141,0,0,0-3.964-8.953,48.093,48.093,0,0,0-6.681-7.216,52.4,52.4,0,0,0-7.483-6.325,68.907,68.907,0,0,0-8.641-4.721,73.719,73.719,0,0,0-8.686-3.653c2.494-2.272,3.92-4.811,5.969-7.26,2.138-2.584,4.454-4.9,6.147-7.617a76.729,76.729,0,0,0,4.454-8.73,94.624,94.624,0,0,0,3.7-9.087c.98-3.118,2.183-6.191,2.9-9.4.713-3.163,1.425-6.414,1.915-9.666.49-3.207-.134-6.592.223-9.888.312-3.252,1.648-6.414,1.871-9.71.223-3.252.044-6.459.267-9.755,2.584-.134,4.944-.356,7.394-.534,2.539-.178,5.033-.624,7.483-.668,2.984-.045,5.924,1.158,8.909,1.381s5.924-.535,8.909-1.158a19.035,19.035,0,0,0,7.929-3.7,23.049,23.049,0,0,0,6.815-7.572,26.485,26.485,0,0,0,2.94-9.888c.223-2.806,0-5.612.178-8.419s.223-5.612.312-8.374c.089-2.806.535-5.612.535-8.374,0-3.341.134-6.681.089-10.022s-.134-6.681-.223-10.022C774.187,258.294,773.385,255,773.3,251.658Zm-158.572-6.726c2.405.267,4.766.535,7.082.757,2.405.223,4.721.624,7.082.891,2.405.267,4.722.935,7.082,1.158,2.361.267,4.721.4,7.082.624,2.361.267,4.721.4,7.082.668,1.158.134,2.227,1.514,3.341,2.272-.089.891-.134,1.648-.223,2.539a78.242,78.242,0,0,1-8.552,0c-2.717-.223-5.434-.178-8.107-.445-2.717-.267-5.39-.757-8.062-1.069s-5.39-.356-8.107-.668a68.658,68.658,0,0,1-10.334-2.138c-.713-.223-1.113-2.183-2.539-4.9C609.958,244.843,612.364,244.664,614.724,244.932Zm-6.771,9.4c1.6,1.114,2.851,2.984,4.142,4.677,1.648,2.138,3.43,4.187,4.944,6.459,1.514,2.316,2.806,4.811,4.187,7.26s2.851,4.811,4.053,7.35,2.405,5.167,3.474,7.84c1.024,2.673,1.871,5.479,2.762,8.24a28.586,28.586,0,0,1,.668,5.835c-3.073,1.425-4.276-1.336-5.078-3.341-.935-2.316-1.6-4.855-2.45-7.26a48.668,48.668,0,0,0-2.628-7.171c-1.336-2.494-2.762-4.855-4.142-7.3-1.381-2.405-2.851-4.766-4.276-7.216-1.381-2.405-2.717-4.9-4.142-7.349-1.381-2.361-2.851-4.766-4.276-7.216C606.039,254.865,607.33,253.885,607.954,254.33Zm-92.426-7.038c1.782,2.049,3.608,4.187,5.345,6.325a64.175,64.175,0,0,1,4.9,6.9c1.514,2.361,2.673,4.989,4.053,7.394,1.381,2.45,2.806,4.855,4.053,7.394s2.494,5.078,3.608,7.8c1.069,2.673,1.96,5.434,2.806,8.24.891,2.851,1.47,5.835,2.316,9.4-4.365.713-4.9-2.361-5.657-4.543-1.158-3.207-1.915-6.236-2.9-8.82-1.247-3.252-2.584-5.88-3.608-8.374-1.381-3.207-2.494-5.969-3.7-8.285a70.782,70.782,0,0,0-4.766-7.394c-1.514-2.227-3.252-4.365-5.167-6.993-1.514-2.049-3.073-4.454-4.989-7.216C512.321,246.491,514.013,245.511,515.528,247.292ZM256.735,498.825c-3.519.312-6.949,1.113-10.468,1.47s-7.038.4-10.512.757c-3.519.356-6.949,1.114-10.468,1.425-3.163.267-6.414-.312-9.577-.044s-6.236,1.559-9.4,1.826-6.414-.223-9.577.044-6.281,1.292-9.443,1.559l-9.488.8c-3.163.267-6.414-.445-9.577-.178s-6.281,1.2-9.443,1.47-6.325.8-9.488,1.069c-2.94.223-5.88.445-8.775.757a84.107,84.107,0,0,1-8.864.178c-2.851,0-5.657-.846-8.508-1.158s-5.791-.134-8.641-.4c.045-.668.089-1.247.134-1.915,3.3-.267,6.548-.8,9.8-1.114,3.3-.267,6.592-.178,9.888-.445s6.548-.846,9.844-1.158c3.3-.267,6.592-.312,9.888-.579s6.548-.846,9.844-1.114,6.548-.624,9.844-.891,6.592-.356,9.888-.624,6.548-.98,9.844-1.247,6.592-.49,9.888-.757,6.592-.4,9.888-.668,6.637-.089,9.933-.356,6.592-.668,9.844-.935c3.3-.267,6.592-.668,9.844-.935,3.3-.267,6.592-.4,9.888-.668s6.548-.624,9.844-.891C262.526,498.958,259.541,498.558,256.735,498.825Zm37.95-60.934c-1.826,2.094-3.652,4.187-5.568,6.236s-3.7,4.187-5.479,6.325a16.581,16.581,0,0,1-9.844,6.1,22.574,22.574,0,0,1-11.626-1.069c1.069-2.673,1.826-5.256,2.762-7.706,1.025-2.583,2.227-5.033,3.207-7.572,1.336-3.341,3.3-6.325,7.127-6.949a98.978,98.978,0,0,1,11-1.336,39.588,39.588,0,0,1,11.18,1.2A24.5,24.5,0,0,1,294.685,437.891Zm22.583-138.439c-1.826-3.875-3.252-6.058-3.831-8.374-.8-3.118-1.96-5.924-2.984-8.864-1.024-2.984-2.094-5.835-3.3-8.641-1.2-2.851-2.405-5.657-3.786-8.329s-2.539-5.568-4.053-8.151-3.163-4.989-4.766-7.483c-1.6-2.45-3.341-4.811-5.033-7.171s-3.341-4.811-5.033-7.171a23.2,23.2,0,0,1-1.158-3.3c2.673.98,4.365.891,5.211,1.96,1.96,2.494,3.875,5.033,5.791,7.617a91.732,91.732,0,0,1,5.657,7.8c1.737,2.806,3.163,5.835,4.766,8.686,1.6,2.9,3.385,5.657,4.855,8.641,1.47,3.029,2.673,6.236,3.875,9.4s2.494,6.325,3.43,9.71C317.981,289.341,319.184,293.26,317.269,299.452Zm8.686-68.685c-2.45-.178-4.9-.089-7.35-.312s-4.855-.846-7.305-1.158-4.9-.312-7.35-.713-4.855-1.069-7.26-1.6-4.9-.846-7.3-1.514c-.089-.668-.312-1.6-.4-2.272,1.247-.713,2.673-1.915,3.875-1.826,2.851.223,5.7.178,8.552.579s5.657.8,8.508,1.114c2.717.267,5.434.668,8.151.935,2.717.223,5.434.935,8.151,1.158s5.434.356,8.2.579c2.717.267,5.434.4,8.2.668,2.539.267,4.989,1.381,7.528,2.049.089.713.223,1.336.312,2.049-.846.757-1.693,2.316-2.494,2.227-2.45-.267-4.855-1.069-7.3-1.247-2.45-.223-4.9.223-7.35.045C330.854,231.257,328.4,230.945,325.954,230.767Zm75.188,85.878c-2.227.134-4.722.178-7.439.223-2.361.045-4.855.089-7.483.089-2.405,0-4.944.891-7.483.8-2.45-.045-4.989-.668-7.483-.757s-4.989-.535-7.483-.668c-2.539-.134-5.078-.134-7.483-.356-2.628-.223-5.167,0-7.483-.223-2.762-.312-5.256-.891-7.439-1.247-3.519-.579-6.37-1.069-7.572-1.737,1.381-1.114,2.628-2.049,3.7-2.094,2.717-.134,5.434-1.2,8.151-1.2s5.479.757,8.2.846c2.628.089,5.3-.579,7.973-.49,2.628.089,5.3.134,7.929.223s5.3,1.114,7.929,1.2,5.3-.49,7.973-.4,5.3-.089,7.929,0,5.3.356,7.929.445a3.287,3.287,0,0,0,1.737-.356,76.777,76.777,0,0,0-1.292-9.755,86.083,86.083,0,0,0-3.207-9c-1.024-2.984-2.093-6.013-3.3-8.909s-2.673-5.612-3.92-8.463-2.316-5.835-3.7-8.552-3.074-5.211-4.632-7.75a76.946,76.946,0,0,0-4.944-7.439,61.545,61.545,0,0,0-5.924-6.37c4.187-3.563,6.548-.223,8.24,2.183,1.47,2.138,2.851,4.454,4.321,6.637s3.163,4.142,4.543,6.414,2.717,4.632,3.964,6.993c1.292,2.45,2.45,5.078,3.608,7.617,1.158,2.583,1.96,5.39,2.984,8.062s2.049,5.3,2.94,8.062,1.737,5.479,2.45,8.285,1.247,5.7,1.826,8.552.8,5.835,1.158,8.73C406.755,316.6,404.216,316.423,401.142,316.645Zm32.739-14.12c-1.782-3.7-3.207-5.746-3.786-7.973-.757-2.94-1.915-5.657-2.9-8.419-.98-2.806-2.049-5.523-3.207-8.2-1.2-2.673-2.361-5.345-3.7-7.884s-2.494-5.3-3.964-7.75-3.073-4.766-4.677-7.082c-1.559-2.316-3.252-4.543-4.9-6.815s-3.252-4.588-4.944-6.77a18.986,18.986,0,0,1-1.114-3.118c2.628.935,4.276.8,5.122,1.826,1.915,2.361,3.786,4.811,5.657,7.216A83.99,83.99,0,0,1,417,254.954c1.693,2.628,3.118,5.523,4.677,8.24,1.6,2.717,3.3,5.345,4.721,8.2s2.583,5.88,3.786,8.909a97.336,97.336,0,0,1,3.385,9.176C434.594,292.949,435.8,296.646,433.881,302.525Zm1.381-65.478c-2.405-.223-4.766-.8-7.171-1.069s-4.811-.267-7.216-.668c-2.405-.356-4.766-1.025-7.127-1.514s-4.811-.8-7.127-1.425c-.089-.624-.312-1.514-.4-2.138,1.247-.668,2.628-1.826,3.831-1.737,2.806.223,5.612.178,8.374.534s5.568.757,8.329,1.025c2.673.267,5.345.624,8.018.846s5.345.891,8.018,1.114,5.345.312,8.018.579c2.673.223,5.345.356,8.018.624,2.494.223,4.9,1.292,7.394,1.915.089.668.178,1.247.312,1.96-.846.713-1.693,2.183-2.45,2.094-2.405-.223-4.766-.98-7.171-1.2-2.405-.178-4.811.223-7.216.045s-4.811-.49-7.171-.668C440.073,237.181,437.667,237.27,435.262,237.048Zm16.614,296.743a33.536,33.536,0,0,1-4.9-8.285,39.322,39.322,0,0,1-2.272-9.354,52.775,52.775,0,0,1-.49-9.621,48.284,48.284,0,0,1,1.158-8.819c.49-2.94.668-5.924,1.782-8.73a33.921,33.921,0,0,1,4.588-7.661c2.272-2.984,4.721-5.3,7.439-6.414a12.76,12.76,0,0,1,9.666.267,18.158,18.158,0,0,1,7.884,5.746,32.512,32.512,0,0,1,4.321,8.2,44.531,44.531,0,0,1,2.717,8.864,46.349,46.349,0,0,1-.089,18.53,46.2,46.2,0,0,1-2.049,9.131,32.5,32.5,0,0,1-4.588,8.2,19.486,19.486,0,0,1-7.84,6.147c-3.163,1.336-6.5.935-9.666-.312A17.213,17.213,0,0,1,451.876,533.791Zm47.572-14.3A57.6,57.6,0,0,1,497,530.049a53.065,53.065,0,0,1-4.1,10.067,49.264,49.264,0,0,1-8.775,10.69,19.256,19.256,0,0,1-7.171,4.677,15.737,15.737,0,0,1-8.508.089,18.634,18.634,0,0,1-7.706-4.009,34.012,34.012,0,0,0,11.626-.935,19.736,19.736,0,0,0,9.844-5.79,47.017,47.017,0,0,0,6.013-8.953A45.017,45.017,0,0,0,492.455,526a49.083,49.083,0,0,0,2.049-10.6,80,80,0,0,0,.535-9.22c-.134-3.073-.49-6.147-.757-9.22s-.624-6.147-.8-9.22c-.089-1.871-.134-3.742-.267-5.568-.535-1.2-1.158-2.405-1.737-3.608.579,1.2,1.336,2.227,1.915,3.474a26.357,26.357,0,0,1,4.321,8.285c.98,2.94,1.114,6.1,1.47,9.176.312,3.074-.178,6.191-.045,9.265C499.4,512.321,499.893,515.929,499.448,519.493ZM501.5,319.1c-2.361,0-4.855.846-7.349.8-2.405-.045-4.9-.624-7.35-.713s-4.9-.49-7.305-.624c-2.494-.134-4.944-.134-7.3-.312-2.583-.178-5.033,0-7.35-.223-2.717-.267-5.167-.846-7.26-1.158-3.474-.535-6.236-1.024-7.439-1.648,1.336-1.069,2.583-1.915,3.608-1.96,2.673-.134,5.345-1.158,8.018-1.158s5.345.713,8.018.8c2.583.089,5.211-.579,7.795-.49s5.211.134,7.795.223,5.167,1.069,7.795,1.158c2.584.089,5.211-.49,7.795-.4s5.211-.089,7.795-.045c2.584.089,5.211.312,7.795.4a3.468,3.468,0,0,0,1.693-.312A69.247,69.247,0,0,0,517,304.173c-.757-2.984-2.094-5.7-3.118-8.552s-2.049-5.7-3.252-8.419c-1.2-2.762-2.583-5.345-3.831-8.062s-2.272-5.523-3.608-8.107-2.984-4.944-4.543-7.35a76.1,76.1,0,0,0-4.811-7.082,61.538,61.538,0,0,0-5.79-6.013c4.1-3.385,6.414-.223,8.062,2.094,1.47,2.049,2.806,4.231,4.232,6.281,1.425,2.093,3.073,3.92,4.454,6.058s2.673,4.41,3.92,6.637c1.292,2.316,2.405,4.811,3.563,7.216,1.158,2.45,1.915,5.122,2.9,7.617.98,2.539,2,5.033,2.851,7.617s1.693,5.211,2.405,7.884,1.247,5.39,1.782,8.151c.534,2.717.8,5.523,1.158,8.285-1.737.356-4.232.223-7.26.445-2.183.134-4.633.178-7.3.223C506.53,319.051,504.08,319.1,501.5,319.1Zm41.6,121.334a136.453,136.453,0,0,0-11.626,18.53A100.949,100.949,0,0,0,527.6,469.2c-.668-.044-1.648,0-2.316-.044-1.425-2.762-2.672-5.7-4.1-8.463-1.425-2.806-3.252-5.345-4.855-8.018-1.559-2.628-3.207-5.167-4.989-7.661-1.737-2.494-3.474-5.212-5.167-7.751,1.826-.935,5.122-1.559,8.908-2.272,2.673-.49,5.657-1.069,8.864-1.425,2.851-.312,5.88-.713,8.953-.891,2.984-.178,6.013-.134,9-.178,3.118,0,6.1-.044,8.953.134A91.3,91.3,0,0,0,543.1,440.429ZM544.124,244.8c-2.628-.312-5.256-.535-7.839-.8-2.628-.312-5.211-.8-7.84-1.114s-5.523-.4-8.151-.713c-.4-6.013,2.539-5.88,4.9-5.568,2.316.312,4.633.757,6.949,1.069s4.588,1.069,6.949,1.381c2.316.312,4.632.445,6.993.713,2.9.312,5.791.356,8.686.535s5.791.49,8.686.8a62.367,62.367,0,0,1,8.285,1.96c-.134,4.766-2.361,4.232-4.053,4.053-2.628-.267-5.256-.267-7.884-.535-2.628-.312-5.212-.8-7.84-1.114C549.38,245.11,546.752,245.11,544.124,244.8Zm41.692,74.743c-2.583-.045-5.167-.4-7.75-.49s-5.167.223-7.75.045-5.122-1.158-7.706-1.425-5.211.445-7.795.045c-.4-.045-.535-1.648-1.292-2.94,1.47-.668,2.494-2.183,3.653-2.227,2.183-.045,4.365-.089,6.548-.089s4.365.891,6.548.935,4.365-.579,6.548-.535c2.361.045,4.721-.134,7.082-.089,2.361.089,4.677.312,7.082.4,2.316.089,4.677.535,7.082.624,2.316.089,4.677.713,7.082.8,2.316.089,4.677-.4,7.082-.356-.891-3.073-1.693-6.147-2.628-9.131-.935-3.029-2.138-5.924-3.163-8.864-1.024-2.984-1.871-6.058-2.984-8.953-1.158-2.9-2.583-5.657-3.875-8.463s-2.494-5.7-3.92-8.374-3.118-5.167-4.721-7.706-3.341-5.122-5.167-7.528c2.851-2.45,4.9-.668,6.325,1.559,1.6,2.494,3.519,4.766,5.122,7.3s3.118,5.212,4.543,7.884c1.247,2.316,2.361,4.9,3.474,7.439,1.114,2.45,1.871,5.211,2.851,7.84.98,2.583,2,5.167,2.851,7.795.846,2.673,1.737,5.345,2.494,8.018.757,2.762,1.292,5.568,1.871,8.24.624,2.851,1.158,5.612,1.514,8.33-2.583-.045-5.167-.178-7.706-.223-2.583-.045-5.167-.356-7.75-.356s-5.167.134-7.75.134C590.983,319.229,588.4,319.585,585.816,319.541Zm10.735,202.892a30.7,30.7,0,0,1-4.454-8.374,42.074,42.074,0,0,1-1.871-9.309,48.729,48.729,0,0,1-.534-9.532,43.4,43.4,0,0,1,1.871-9.4,32.043,32.043,0,0,1,4.276-8.552,19.113,19.113,0,0,1,8.374-6.726,11.946,11.946,0,0,1,10.379.089,20.2,20.2,0,0,1,7.884,7.216,30.832,30.832,0,0,1,4.321,10.423,46.32,46.32,0,0,1,1.114,11.269,37.73,37.73,0,0,1-1.069,11.848,33.341,33.341,0,0,1-5.434,10.512c-2.183,3.073-4.543,5.39-7.3,6.5a12.747,12.747,0,0,1-9.666-.134A16.506,16.506,0,0,1,596.551,522.432ZM642.7,507.021c-.267,3.519-1.425,6.815-2.272,10.156-.891,3.474-1.47,6.949-2.94,9.978a38.214,38.214,0,0,1-5.835,8.641c-2.405,2.717-4.677,4.9-7.216,6.1a14.96,14.96,0,0,1-9.265.935,24.916,24.916,0,0,1-8.908-3.3,43.47,43.47,0,0,0,9.443-.935,24.1,24.1,0,0,0,8.374-4.1,24.519,24.519,0,0,0,6.236-6.859,45.868,45.868,0,0,0,4.41-8.24,51.855,51.855,0,0,0,2.183-8.508,57.1,57.1,0,0,0,1.336-8.641,71.912,71.912,0,0,0,.267-8.775,84.11,84.11,0,0,0-.445-8.819c-.4-2.717-.8-5.434-1.114-8.151a40.382,40.382,0,0,1,4.365,9.532,56.582,56.582,0,0,1,1.737,10.423A64.2,64.2,0,0,1,642.7,507.021ZM691.16,319.986c-2.316.045-4.632.356-6.949.356s-4.632-.178-6.949-.267c-2.316-.045-4.632-.535-6.949-.668s-4.588-.846-6.9-1.069-4.633.134-6.949-.178-4.588-.8-6.9-1.158c-2.272-.4-4.677-.579-6.993-1.114,1.069-.98,2.227-2.494,3.385-2.628a51.061,51.061,0,0,1,9.042-.4c2.673.089,5.345.445,8.018.579s5.345-.045,8.062.089c2.673.134,5.345.134,8.062.267,2.673.089,5.345.4,8.018.49,1.782.044,3.252-.624,5.791-.936-.891-2.851-1.826-5.3-2.762-8.107-.98-2.851-1.826-5.7-2.851-8.463s-1.782-5.746-2.9-8.463-2.361-5.345-3.608-8.018c-1.2-2.628-2.583-5.212-3.92-7.795-1.336-2.539-2.628-5.122-4.1-7.617-1.425-2.45-2.984-4.766-4.588-7.127,2.405.312,3.608-.044,4.454.535a14.261,14.261,0,0,1,2.984,3.653,66.142,66.142,0,0,1,4.811,7.038c1.336,2.405,2.138,5.434,3.43,8.2,1.247,2.583,3.118,4.855,4.276,7.617,1.114,2.717,1.693,5.835,2.717,8.641,1.024,2.851,2.539,5.434,3.385,8.24.935,2.984,1.782,5.924,2.45,8.73.8,3.163.757,6.1,1.158,8.864C695.569,319.362,693.476,319.941,691.16,319.986Z" transform="translate(0 185.59)" fill="#1a1a1a"/>
  </g>
</svg>
