<?xml version="1.0" encoding="utf-8"?>
<!-- Generator: Adobe Illustrator 25.2.3, SVG Export Plug-In . SVG Version: 6.00 Build 0)  -->
<svg xmlns="http://www.w3.org/2000/svg" width="28.724" height="20.107" viewBox="0 0 28.724 20.107"><g transform="translate(-0.357 -0.311)"><path d="M48.951,24.608h0l7.462,4.308h0Z" transform="translate(-37.104 -18.552)" fill="none"/><path d="M28.481,3.451A3.6,3.6,0,0,0,25.941.911c-2.24-.6-11.222-.6-11.222-.6S5.737.311,3.5.911a3.6,3.6,0,0,0-2.54,2.54,37.386,37.386,0,0,0-.6,6.913,37.388,37.388,0,0,0,.6,6.914A3.6,3.6,0,0,0,3.5,19.817c2.24.6,11.222.6,11.222.6s8.982,0,11.222-.6a3.6,3.6,0,0,0,2.539-2.539,37.374,37.374,0,0,0,.6-6.914A37.372,37.372,0,0,0,28.481,3.451Zm-9.172,6.915-7.462,4.308h0V6.056h0l7.462,4.309h0Z" transform="translate(0)" fill="#ffe7c7"/><path d="M48.951,47.142l7.462-4.308h0l-7.462,4.308Z" transform="translate(-37.104 -32.468)" fill="#fff"/></g></svg>
